<?xml version="1.0" encoding="utf-8"?>
<!-- Generator: Adobe Illustrator 27.5.0, SVG Export Plug-In . SVG Version: 6.00 Build 0)  -->
<svg version="1.1" id="Layer_1" xmlns="http://www.w3.org/2000/svg" xmlns:xlink="http://www.w3.org/1999/xlink" x="0px" y="0px"
	 viewBox="0 0 600 400" style="enable-background:new 0 0 600 400;" xml:space="preserve">
<style type="text/css">
	.st0{fill:none;stroke:#00A79D;stroke-width:4;stroke-miterlimit:10;}
	.st1{fill:#FFFFFF;}
	.st2{fill:#00A79D;}
</style>
<path class="st0" d="M329.2,40.5c-4.9-1-9.9-1.8-14.8-2.4c-1.2-0.1-2.5-0.2-3.7-0.3l-0.9-0.1l-0.9,0l-1.9-0.1l-1.9-0.1
	c-0.6,0-1.2,0-1.9,0c-1.2,0-2.5-0.1-3.7-0.1c-5,0-9.9,0.3-14.8,0.7c-4.9,0.5-9.7,1.1-14.6,1.9c-4.8,0.8-9.6,1.7-14.3,2.8
	c-4.7,1-9.4,2.1-14.1,3.3c-4.7,1.2-9.4,2.3-14,3.5c-4.6,1.2-9.3,2.4-13.9,3.6c-9.2,2.5-18.3,5.2-27.2,8.3s-17.6,6.8-25.9,11.1
	c-8.3,4.3-16.2,9.3-23.4,15.2c-0.9,0.8-1.8,1.5-2.7,2.2c-0.9,0.8-1.7,1.6-2.6,2.3c-0.8,0.8-1.7,1.6-2.5,2.4l-0.6,0.6
	c-0.2,0.2-0.4,0.4-0.6,0.6l-1.2,1.3l-1.2,1.3l-0.6,0.6c-0.2,0.2-0.4,0.4-0.6,0.7c-0.8,0.9-1.5,1.8-2.3,2.6c-0.2,0.2-0.4,0.4-0.6,0.7
	l-0.5,0.7l-1.1,1.4l-1.1,1.4c-0.2,0.2-0.3,0.5-0.5,0.7l-0.5,0.7c-0.4,0.6-0.8,1.1-1.2,1.7c-0.2,0.3-0.4,0.5-0.6,0.8
	c-0.1,0.1-0.2,0.3-0.3,0.4c-0.1,0.1-0.2,0.3-0.3,0.4c-0.7,1.1-1.4,2.1-2.2,3.2c-0.1,0.1-0.2,0.3-0.3,0.4c-0.1,0.1-0.2,0.3-0.3,0.4
	c-0.2,0.3-0.4,0.6-0.6,0.9c-0.4,0.6-0.8,1.2-1.2,1.9c-0.2,0.3-0.4,0.7-0.6,1c-0.2,0.3-0.4,0.7-0.6,1.1c-0.4,0.7-0.9,1.5-1.3,2.3
	c-2.8,5-5.4,10.2-7.6,15.5l-0.8,1.9l-0.4,0.9c-0.1,0.3-0.2,0.6-0.4,0.9c-0.5,1.3-1,2.5-1.5,3.8c-0.4,1.3-0.9,2.5-1.3,3.8
	c-0.1,0.3-0.2,0.6-0.3,0.9l-0.3,1l-0.6,1.9c-0.2,0.6-0.4,1.3-0.6,1.9l-0.6,1.9c-0.4,1.3-0.8,2.6-1.1,3.9c-0.3,1.3-0.7,2.6-1.1,3.9
	c-0.2,0.6-0.3,1.3-0.5,1.9l-0.5,1.9c-0.2,0.9-0.4,1.8-0.6,2.7c-0.2,0.9-0.4,1.9-0.6,2.8c-0.2,0.9-0.4,1.9-0.6,2.8
	c-0.2,0.9-0.3,1.9-0.5,2.8c0,0.1,0,0.2-0.1,0.3c-0.2,1.5-0.4,2.5-0.5,3.1c-0.1,0.6-0.1,0.8-0.1,0.8c0-0.1,0.1-0.5,0.2-1.1
	c0.1-0.6,0.2-1.4,0.4-2.3c0.2-1,0.4-2,0.5-3c0.1-0.5,0.2-1,0.3-1.4s0.2-0.9,0.3-1.4c0.4-1.9,0.7-3.6,1.1-5.2
	c-0.1,0.2-0.1,0.6-0.2,0.9s-0.2,0.7-0.3,1.2c-0.2,0.9-0.4,1.8-0.6,2.9c-0.1,0.5-0.2,1-0.3,1.6c-0.1,0.5-0.2,1.1-0.3,1.6
	c-0.2,1.1-0.4,2.1-0.5,3c-0.5,2.5-0.8,5.2-1.2,8c0,0.2-0.1,0.4-0.1,0.5c0,0.2,0,0.4-0.1,0.5c0,0.4-0.1,0.7-0.1,1.1
	c-0.1,0.7-0.2,1.5-0.2,2.3c-0.1,0.8-0.2,1.5-0.2,2.3c-0.1,0.8-0.1,1.6-0.2,2.4c-0.1,1.2-0.2,2.4-0.3,3.7c-0.1,1.2-0.1,2.5-0.2,3.7
	c0,0.6-0.1,1.3-0.1,1.9c0,0.6,0,1.3,0,1.9c0,1.3-0.1,2.5-0.1,3.8c0,0.6,0,1.3,0,1.9c0,0.6,0,1.3,0,1.9c0,0.6,0,1.3,0,1.9l0,1l0,1
	c0.1,1.3,0.1,2.6,0.2,3.9l0,1c0,0.3,0.1,0.7,0.1,1c0.1,0.7,0.1,1.3,0.1,2c-0.3-2.9-0.3-5.8-0.5-8.5c0-0.3,0-0.7,0-1c0-0.3,0-0.7,0-1
	c0-0.7,0-1.3,0-2c0-0.7,0-1.3,0-2l0-0.5l0-0.5c0-0.3,0-0.6,0-1c0-1.3,0.1-2.5,0.1-3.8c0-0.3,0-0.6,0-0.9c0-0.3,0-0.6,0-0.9
	c0-0.6,0.1-1.2,0.1-1.8c0.1-1.2,0.1-2.3,0.2-3.5c0.1-1.1,0.2-2.2,0.3-3.3c0.1-0.8,0.1-1.6,0.2-2.3s0.2-1.5,0.2-2.3
	c0.1-0.8,0.2-1.5,0.2-2.3c0-0.4,0.1-0.8,0.1-1.1s0.1-0.8,0.1-1.1c0.2-1.5,0.4-3,0.6-4.5l0.2-1.1l0.2-1.1l0.4-2.2
	c0.1-0.9,0.3-1.7,0.4-2.6c0.2-0.9,0.3-1.7,0.5-2.6l-0.5,2.3c-0.1,0.8-0.3,1.5-0.4,2.3l-0.4,2.3l-0.2,1.1l-0.1,0.6l-0.1,0.6
	c-0.2,1.5-0.4,3-0.6,4.6c-0.1,0.8-0.2,1.5-0.3,2.3l-0.2,2.3l-0.2,2.3l-0.2,2.3l-0.2,2.3c-0.1,0.8-0.1,1.5-0.2,2.3l-0.2,4.6
	c-0.1,0.8-0.1,1.5-0.1,2.3l0,2.3l0,2.3l0,2.3l0,2.3c0,0.8,0,1.5,0.1,2.3l0.2,4.6c0,0.8,0.1,1.5,0.2,2.3l0.2,2.3l0.2,2.3l0.2,2.3
	l0.2,2.3c0.1,0.8,0.2,1.5,0.3,2.3l0.6,4.6c0.1,0.8,0.2,1.5,0.4,2.3l0.4,2.3c0.1,0.7,0.2,1.4,0.3,2.1c0.1,0.7,0.3,1.4,0.4,2
	c0.3,1.3,0.5,2.6,0.8,3.9c0.3,1.3,0.6,2.5,0.9,3.7c0.1,0.6,0.3,1.2,0.4,1.7c0.1,0.3,0.1,0.6,0.2,0.8s0.2,0.5,0.2,0.8
	c2.2,8.6,5.1,17,8.2,24.4c0.8,1.8,1.5,3.6,2.3,5.3c0.4,0.9,0.8,1.7,1.2,2.5c0.2,0.4,0.4,0.8,0.6,1.2s0.4,0.8,0.6,1.2
	c0.8,1.5,1.5,3,2.2,4.4c0.8,1.4,1.5,2.7,2.1,3.9c0.3,0.5,0.5,0.9,0.8,1.4c0.3,0.5,0.6,0.9,0.8,1.4c0.6,0.9,1.1,1.9,1.7,2.8l0.4,0.7
	l0.2,0.4l0.2,0.3c0.3,0.5,0.6,0.9,0.9,1.4c0.6,0.9,1.2,1.8,1.8,2.8c-0.4-0.7-0.9-1.4-1.4-2.1c0.5,0.8,1,1.6,1.5,2.2
	c0.1,0.2,0.2,0.3,0.3,0.5s0.2,0.3,0.3,0.5c0.2,0.3,0.4,0.6,0.6,0.9c5.3,7.5,11.4,14.6,18,21.1c6.6,6.5,13.9,12.4,21.7,17.4
	c0.3,0.2,0.6,0.4,0.9,0.6l0.5,0.3l0.5,0.3c0.6,0.4,1.3,0.8,1.9,1.2c0.6,0.4,1.3,0.8,2,1.1l1,0.6l1,0.5c2.7,1.5,5.4,2.8,8.2,4.1
	c0.7,0.3,1.4,0.6,2.1,0.9c0.7,0.3,1.4,0.6,2.1,0.9c0.4,0.1,0.7,0.3,1.1,0.4l1.1,0.4c0.7,0.3,1.4,0.5,2.2,0.8
	c0.4,0.1,0.7,0.3,1.1,0.4l1.1,0.4l2.2,0.7l1.1,0.4c0.2,0.1,0.4,0.1,0.6,0.2l0.6,0.1l2.2,0.6c0,0,0.5,0.1,1.3,0.4
	c0.4,0.1,0.9,0.2,1.4,0.4c0.6,0.1,1.1,0.3,1.8,0.4c0.6,0.1,1.3,0.3,2,0.5c0.7,0.1,1.4,0.3,2,0.4s1.3,0.2,1.9,0.4
	c0.3,0.1,0.6,0.1,0.9,0.2c0.1,0,0.3,0,0.4,0.1c0.1,0,0.3,0,0.4,0.1c1.2,0.2,2.6,0.4,4.1,0.6c0.2,0,0.4,0.1,0.6,0.1s0.4,0,0.6,0.1
	c0.4,0,0.8,0.1,1.2,0.1c0.8,0.1,1.6,0.2,2.5,0.3c0.2,0,0.4,0,0.7,0.1c0.2,0,0.4,0,0.7,0c0.4,0,0.9,0.1,1.4,0.1
	c0.9,0.1,1.9,0.1,2.8,0.2c1,0.1,2,0.1,3,0.1c0.5,0,1,0,1.5,0.1c0.3,0,0.5,0,0.8,0c0.3,0,0.5,0,0.8,0c-0.6,0-1.2,0-1.9-0.1
	s-1.2-0.1-1.9-0.1c-0.6,0-1.2-0.1-1.8-0.1c-0.6,0-1.2-0.1-1.8-0.1c-1.2-0.1-2.4-0.2-3.5-0.3c-1.2-0.1-2.3-0.3-3.5-0.4
	c-0.6-0.1-1.1-0.1-1.7-0.2c-0.6-0.1-1.1-0.2-1.7-0.2c-1.1-0.2-2.2-0.3-3.3-0.5c-1.1-0.2-2.2-0.4-3.2-0.6c-0.5-0.1-1.1-0.2-1.6-0.3
	c-0.5-0.1-1-0.2-1.6-0.4c-3.1-0.7-6.2-1.5-9.5-2.5c-0.8-0.3-1.6-0.5-2.5-0.8c-0.4-0.1-0.8-0.3-1.2-0.4c-0.4-0.1-0.8-0.3-1.2-0.5
	c-0.8-0.3-1.7-0.6-2.5-0.9c-0.4-0.1-0.8-0.3-1.3-0.5c-0.4-0.2-0.8-0.3-1.3-0.5c-3.4-1.4-6.7-2.9-10-4.6c-3.3-1.7-6.5-3.6-9.6-5.7
	c3.1,2,6.3,3.9,9.6,5.7s6.6,3.3,10,4.6c0.4,0.2,0.8,0.3,1.3,0.5c0.4,0.2,0.9,0.3,1.3,0.5c0.8,0.3,1.7,0.6,2.5,0.9
	c0.4,0.1,0.8,0.3,1.2,0.5c0.4,0.1,0.8,0.3,1.2,0.4c0.8,0.3,1.7,0.5,2.5,0.8c3.3,1,6.5,1.8,9.5,2.5c0.5,0.1,1,0.2,1.6,0.4
	c0.5,0.1,1.1,0.2,1.6,0.3c1.1,0.2,2.1,0.4,3.2,0.6c1.1,0.2,2.2,0.3,3.3,0.5c0.6,0.1,1.1,0.2,1.7,0.2c0.6,0.1,1.1,0.1,1.7,0.2
	c1.1,0.1,2.3,0.3,3.5,0.4c1.2,0.1,2.4,0.2,3.5,0.3c0.6,0,1.2,0.1,1.8,0.1c0.6,0,1.2,0.1,1.8,0.1c0.6,0,1.2,0.1,1.9,0.1
	c0.6,0,1.2,0.1,1.9,0.1c2.2,0,4.5,0.1,6.8,0c0.6,0,1.2,0,1.8,0c0.3,0,0.6,0,0.9,0c0.3,0,0.6,0,0.9,0c1.2,0,2.4-0.1,3.6-0.1
	c0.6,0,1.2-0.1,1.8-0.1c0.6,0,1.2-0.1,1.9-0.1c0.6,0,1.2-0.1,1.9-0.1c0.6,0,1.2-0.1,1.9-0.1c1.2-0.1,2.5-0.2,3.8-0.3
	c1.3-0.1,2.5-0.2,3.8-0.4c10.1-1.1,20.3-2.6,29.2-4.4c-1.4,0.3-2.8,0.5-4.1,0.8c-0.7,0.1-1.4,0.3-2,0.4c-0.3,0.1-0.7,0.1-1,0.2
	c-0.3,0.1-0.7,0.1-1,0.2c-1.4,0.2-2.7,0.4-4,0.7c-0.7,0.1-1.3,0.2-2,0.3c-0.3,0-0.6,0.1-1,0.2c-0.3,0-0.6,0.1-1,0.1
	c-2.6,0.4-5.1,0.7-7.7,1.1c-1.2,0.1-2.5,0.3-3.7,0.4c-0.3,0-0.6,0.1-0.9,0.1c-0.3,0-0.6,0.1-0.9,0.1c-0.6,0.1-1.2,0.1-1.8,0.2
	c-2.4,0.3-4.8,0.4-7.1,0.6c-1.2,0.1-2.3,0.1-3.5,0.2c-0.6,0-1.1,0.1-1.7,0.1c-0.6,0-1.1,0-1.7,0.1c-1.1,0-2.2,0.1-3.3,0.1
	c-1.1,0-2.2,0-3.3,0c-2.2,0-4.3,0-6.4-0.1c-0.3,0-0.5,0-0.8,0c-0.3,0-0.5,0-0.8,0c-0.5,0-1,0-1.5-0.1c-1,0-2-0.1-3-0.1
	c-1-0.1-1.9-0.1-2.8-0.2c-0.5,0-0.9-0.1-1.4-0.1c-0.2,0-0.4,0-0.7,0s-0.4,0-0.7-0.1c-0.9-0.1-1.7-0.2-2.5-0.3
	c-0.4,0-0.8-0.1-1.2-0.1c-0.2,0-0.4,0-0.6-0.1s-0.4,0-0.6-0.1c-1.5-0.2-2.9-0.4-4.1-0.6c-0.1,0-0.3,0-0.4-0.1c-0.1,0-0.3,0-0.4-0.1
	c-0.3,0-0.6-0.1-0.9-0.2c-0.6-0.1-1.3-0.2-1.9-0.4s-1.4-0.2-2-0.4c-0.7-0.2-1.3-0.3-2-0.5s-1.2-0.3-1.8-0.4c-0.6-0.1-1-0.2-1.4-0.4
	c-0.8-0.2-1.3-0.4-1.3-0.4l-2.2-0.6l-0.6-0.1c-0.2,0-0.4-0.1-0.6-0.2l-1.1-0.4l-2.2-0.7l-1.1-0.4c-0.4-0.1-0.7-0.3-1.1-0.4
	c-0.7-0.3-1.4-0.5-2.2-0.8l-1.1-0.4c-0.4-0.1-0.7-0.3-1.1-0.4c-0.7-0.3-1.4-0.6-2.1-0.9s-1.4-0.6-2.1-0.9c-2.8-1.3-5.6-2.6-8.2-4.1
	l-1-0.5l-1-0.6c-0.7-0.4-1.3-0.8-2-1.1s-1.3-0.8-1.9-1.2l-0.5-0.3l-0.5-0.3c-0.3-0.2-0.6-0.4-0.9-0.6c3.8,2.5,7.8,4.7,11.9,6.8
	c4.1,2,8.3,3.8,12.6,5.3c1.1,0.4,2.2,0.7,3.2,1.1l1.6,0.5c0.6,0.2,1.1,0.4,1.6,0.5c2.2,0.6,4.4,1.2,6.7,1.7c4.5,1.1,9,1.8,13.6,2.4
	c1.1,0.1,2.3,0.2,3.4,0.4l0.9,0.1l0.9,0.1l1.7,0.1l1.7,0.1c0.3,0,0.6,0,0.9,0.1l0.9,0c1.1,0,2.3,0.1,3.5,0.2c4.6,0.1,9.3,0.2,13.9,0
	l1.7-0.1c0.6,0,1.2-0.1,1.7-0.1c1.2-0.1,2.3-0.1,3.5-0.2c1.2-0.1,2.3-0.2,3.5-0.3l1.7-0.1l1.7-0.2c4.6-0.4,9.3-1,13.9-1.7
	c0.9-0.1,1.9-0.2,2.8-0.4l2.8-0.5c1.9-0.3,3.7-0.6,5.6-0.9c1.9-0.4,3.7-0.7,5.5-1l1.4-0.3l0.7-0.1l0.7-0.1l2.8-0.6
	c7.4-1.5,14.6-3.3,21.8-5.3c1.8-0.5,3.6-1,5.4-1.5c0.9-0.2,1.8-0.5,2.7-0.8l2.7-0.8l2.7-0.8l0.7-0.2l0.7-0.2l1.3-0.4
	c1.8-0.6,3.5-1.1,5.3-1.7c1.8-0.6,3.5-1.2,5.3-1.8l2.6-0.9l2.6-1c1.7-0.6,3.5-1.3,5.2-1.9c1.7-0.7,3.5-1.3,5.2-2
	c0.9-0.3,1.7-0.7,2.6-1l2.6-1c1.7-0.7,3.4-1.4,5.1-2.1c3.4-1.5,6.8-2.9,10.2-4.4c6.8-3,13.4-6.2,20-9.4c1.6-0.8,3.3-1.6,4.9-2.5
	l1.2-0.6l1.2-0.6l2.5-1.3l2.5-1.3l1.2-0.6l1.2-0.6c1.6-0.9,3.2-1.7,4.9-2.6c6.5-3.5,12.9-7.1,19.2-10.8c12.7-7.3,25.2-15.1,37.5-23
	c6.1-4,12.2-8,18.3-12.1c6.1-4.1,12.1-8.1,18.1-12.4c5.9-4.2,11.8-8.7,17.3-13.4c5.5-4.8,10.8-9.8,15.6-15.4
	c4.8-5.6,9-11.6,12.2-18.2c1.6-3.3,3-6.7,4.1-10.2c1.1-3.5,1.9-7.1,2.5-10.7c0.1-0.9,0.2-1.8,0.3-2.7l0.2-2.7l0.1-2.8
	c0-0.9,0-1.8,0-2.8c0-3.7-0.4-7.3-0.9-11c-1.1-7.3-3-14.4-5.5-21.3c-2.5-6.9-5.5-13.6-8.9-20.2c-3.3-6.6-7-13-10.7-19.3
	c-1.9-3.2-3.8-6.3-5.7-9.5c-2-3.1-4-6.2-6.1-9.3c-2.2-3-4.5-5.9-7-8.6s-5.3-5.2-8.4-7.4c-3-2.2-6.3-4-9.7-5.6
	c-3.4-1.5-7-2.8-10.5-3.7c-7.2-2-14.6-3.1-22.1-3.8c-14.9-1.5-29.9-2.1-45-2.2c-7.5,0-15.1,0.1-22.7,0.4c-7.6,0.3-15.2,0.7-22.8,1.3
	c-1.9,0.1-3.8,0.3-5.7,0.4s-3.8,0.3-5.7,0.5c-3.8,0.3-7.6,0.7-11.4,1.1c-7.6,0.8-15.3,1.6-22.9,2.7s-15.3,2.1-23,3.4
	s-15.3,2.8-23,4.4c-16.6,3.6-32.9,8.1-48.7,13.8c-7.9,2.8-15.7,6-23.3,9.4c-7.6,3.5-15.1,7.3-22.3,11.4c-7.2,4.2-14.2,8.7-20.9,13.6
	c-3.4,2.5-6.6,5-9.8,7.6c-3.2,2.6-6.3,5.4-9.3,8.2c-3,2.9-5.9,5.8-8.7,8.8c-2.8,3.1-5.4,6.2-7.9,9.5c-2.5,3.3-4.8,6.7-7,10.2
	c-1,1.8-2.1,3.5-3.1,5.4c-0.5,0.9-1,1.8-1.4,2.7l-0.7,1.4c-0.2,0.5-0.5,0.9-0.7,1.4l-1.3,2.8l-1.2,2.8c-0.2,0.5-0.4,0.9-0.6,1.4
	l-0.6,1.4c-0.4,0.9-0.7,1.9-1,2.9c-1.3,3.9-2.4,7.8-3.4,11.8c-0.9,4-1.6,8-2.1,12.1l-0.2,1.5l-0.1,0.8l-0.1,0.8l-0.3,3.1l-0.2,3.1
	c0,0.5-0.1,1-0.1,1.5l-0.1,1.5c-0.1,4.1-0.1,8.1,0.2,12.2c0.2,4.1,0.7,8.1,1.3,12.1l0.2,1.5c0.1,0.5,0.2,1,0.2,1.5l0.5,3l0.6,3
	l0.2,0.7l0.2,0.7l0.3,1.5c0.9,3.9,2,7.9,3.3,11.7c1.3,3.8,2.7,7.6,4.3,11.4l1.2,2.8c0.4,0.9,0.8,1.8,1.3,2.8
	c0.4,0.9,0.9,1.8,1.3,2.7l0.7,1.4l0.7,1.3l0.7,1.3l0.3,0.7l0.4,0.7l1.5,2.6l1.5,2.6l0.4,0.6l0.4,0.6l0.8,1.3l0.8,1.3l0.8,1.3
	l0.8,1.3l0.4,0.6l0.4,0.6l1.7,2.5l1.8,2.5c2.4,3.2,4.9,6.4,7.5,9.5c2.6,3.1,5.3,6,8.1,8.9l2.1,2.1l2.1,2.1l0.5,0.5l0.6,0.5l1.1,1
	l1.1,1l1.1,1l1.1,1c0.4,0.3,0.8,0.7,1.1,1l2.3,2c1.5,1.3,3.1,2.6,4.6,3.8c3.1,2.5,6.3,4.9,9.6,7.1c3.3,2.3,6.6,4.5,10,6.5
	c3.4,2,6.9,4,10.4,5.9c3.5,1.8,7.1,3.6,10.7,5.2c3.6,1.6,7.3,3.1,11,4.4l2.8,1l2.8,0.9c0.9,0.3,1.9,0.6,2.8,0.8l1.4,0.4
	c0.5,0.1,0.9,0.2,1.4,0.4c3.8,1,7.7,1.8,11.6,2.3l1.5,0.2l0.7,0.1l0.7,0.1l2.9,0.3c2,0.1,3.9,0.3,5.9,0.3l1.5,0c0.5,0,1,0,1.5,0
	l1.5,0c0.5,0,1,0,1.5-0.1l2.9-0.2c0.5,0,1-0.1,1.5-0.1l1.5-0.2c0.5-0.1,1-0.1,1.5-0.2l1.5-0.2l1.5-0.2c0.2,0,0.5-0.1,0.7-0.1
	l0.7-0.1l2.9-0.6l2.9-0.7c3.8-0.9,7.5-2,11.2-3.2c3.7-1.2,7.3-2.6,11-4c3.6-1.5,7.2-3,10.7-4.5c3.5-1.5,7.1-3.1,10.6-4.6
	c7.1-3.1,14.2-6.1,21.2-9.2c14.2-6.1,28.3-12.1,42.3-18.4c14-6.3,27.9-12.7,41.6-19.6l5.1-2.6l2.6-1.3l2.5-1.3l5.1-2.7
	c1.7-0.9,3.4-1.8,5-2.7c1.7-0.9,3.4-1.8,5-2.8l2.5-1.4l2.5-1.4c1.7-0.9,3.3-1.9,5-2.9c1.6-1,3.3-2,4.9-2.9c6.5-4,13-8.1,19.3-12.3
	c6.3-4.3,12.5-8.7,18.6-13.4c12.1-9.3,23.7-19.4,34.4-30.3c5.3-5.5,10.5-11.1,15.4-17.1l1.8-2.2l1.8-2.2l0.9-1.1
	c0.3-0.4,0.6-0.8,0.9-1.1l1.8-2.3c2.3-3.1,4.5-6.2,6.7-9.4c2.2-3.2,4.2-6.4,6.1-9.8c1-1.7,1.9-3.4,2.8-5l1.3-2.6
	c0.2-0.4,0.4-0.9,0.7-1.3l0.6-1.3c1.7-3.5,3.2-7,4.6-10.6c1.4-3.6,2.5-7.3,3.6-11c1-3.7,1.8-7.6,2-11.5c0.1-1.9,0.1-3.9-0.2-5.9
	s-0.7-3.9-1.3-5.8c-0.6-1.9-1.4-3.7-2.3-5.4c-0.9-1.7-1.9-3.4-3-5c-2.2-3.2-4.6-6.2-7.1-9.2c-5-6-10.5-11.5-16.3-16.7l-1-1
	c-0.4-0.3-0.8-0.6-1.1-0.9l-2.2-1.9c-0.7-0.6-1.5-1.2-2.3-1.8l-2.3-1.8c-0.8-0.6-1.6-1.2-2.4-1.8l-1.2-0.9c-0.4-0.3-0.8-0.6-1.2-0.9
	l-2.4-1.7c-0.8-0.6-1.6-1.1-2.4-1.6c-6.5-4.3-13.4-8.2-20.4-11.7l-1.3-0.7l-1.3-0.6l-2.7-1.3l-0.7-0.3l-0.7-0.3l-1.4-0.6l-2.7-1.2
	l-2.7-1.1l-1.4-0.6c-0.5-0.2-0.9-0.4-1.4-0.6l-2.8-1.1l-1.4-0.5c-0.5-0.2-0.9-0.3-1.4-0.5c-7.4-2.7-15-5.1-22.7-7l-1.4-0.4l-1.5-0.3
	l-2.9-0.7l-0.7-0.2l-0.7-0.2l-1.5-0.3l-2.9-0.6l-2.9-0.6l-1.5-0.3c-0.5-0.1-1-0.2-1.5-0.3l-2.9-0.5l-1.5-0.3l-1.5-0.2
	c-2-0.3-3.9-0.6-5.9-0.9l-3-0.4l-3-0.3c-4-0.5-8-0.8-12-1c-2-0.1-4-0.3-6-0.4c-2-0.1-4-0.2-6-0.2c-4-0.2-8-0.2-12.1-0.2
	c-12.4,0-26.1,0.7-40.7,2c-0.9,0.1-1.8,0.2-2.8,0.2s-1.8,0.2-2.8,0.3c-1.9,0.2-3.7,0.4-5.6,0.6c-0.5,0-0.9,0.1-1.4,0.2
	c-0.5,0.1-0.9,0.1-1.4,0.2c-1,0.1-1.9,0.2-2.9,0.3c-1.9,0.2-3.8,0.5-5.8,0.7c-1.9,0.3-3.9,0.5-5.8,0.8c-1,0.1-2,0.3-2.9,0.4
	c-0.5,0.1-1,0.1-1.5,0.2c-0.5,0.1-1,0.1-1.5,0.2c-2,0.3-4,0.6-6,0.8c-1,0.1-2,0.3-3,0.4c-1,0.2-2,0.3-3,0.4
	c-16.1,2.4-32.8,5.2-49.9,7.8c-17,2.6-34.4,5.2-51.6,8.7c-8.6,1.8-17.1,3.8-25.5,6.3s-16.6,5.3-24.5,8.7c-3.9,1.7-7.8,3.5-11.6,5.5
	c-0.9,0.5-1.9,1-2.8,1.5c-0.5,0.2-0.9,0.5-1.4,0.7c-0.5,0.2-0.9,0.5-1.4,0.8c-0.9,0.5-1.8,1.1-2.7,1.6c-0.5,0.3-0.9,0.5-1.4,0.8
	c-0.4,0.3-0.9,0.6-1.3,0.8c-7.2,4.4-13.9,9.2-20.2,14.2c-6.3,5.1-12.1,10.4-17.5,15.8s-10.4,11-15,16.5c-9.2,11-17,21.9-23.6,31.8
	c-8.8,13.3-15.3,24.5-20.5,33.5c-5.1,9-8.9,16-11.6,21.1c-2.8,5.1-4.5,8.5-5.5,10.5c-1,2-1.3,2.6-1.1,2.4c0.4-0.5,2.8-4.8,5.3-9.2
	c2.5-4.4,5-9,5.8-10.3c9.6-17.1,19-33.1,29.8-49.1c0.7-1,1.3-2,2-3c0.7-1,1.4-2,2.1-3c0.3-0.5,0.7-1,1.1-1.5c0.3-0.5,0.7-1,1.1-1.5
	c0.7-1,1.4-2,2.2-3c0.7-1,1.5-2,2.2-3c0.8-1,1.5-2,2.2-3c0.8-1,1.5-2,2.3-3s1.6-2,2.4-3c0.8-1,1.6-2,2.4-3c0.2-0.2,0.4-0.5,0.6-0.8
	c0.2-0.2,0.4-0.5,0.6-0.7c0.4-0.5,0.8-1,1.3-1.5c0.4-0.5,0.8-1,1.3-1.5s0.8-1,1.3-1.5c0.9-1,1.8-2,2.6-3c0.4-0.5,0.9-1,1.3-1.5
	s0.9-1,1.4-1.5c0.9-1,1.8-2,2.8-3c1-1,1.9-2,2.9-3c0.5-0.5,1-1,1.5-1.5c0.5-0.5,1-1,1.5-1.5c1-1,2-2,3.1-3c1.1-1,2.1-1.9,3.2-2.9
	c1.1-1,2.2-1.9,3.3-2.9c0.6-0.5,1.1-1,1.7-1.5c0.3-0.2,0.6-0.5,0.8-0.7c0.3-0.2,0.6-0.5,0.9-0.7c1.2-0.9,2.3-1.9,3.5-2.9l0.4-0.4
	l0.4-0.3c0.3-0.2,0.6-0.5,0.9-0.7c0.6-0.5,1.2-0.9,1.8-1.4c0.6-0.5,1.2-0.9,1.8-1.4c0.6-0.4,1.3-0.9,1.9-1.4s1.3-0.9,1.9-1.4
	c0.3-0.2,0.6-0.5,1-0.7c0.3-0.2,0.7-0.4,1-0.7c1.3-0.9,2.7-1.8,4-2.7c1.4-0.9,2.8-1.7,4.2-2.6c1.4-0.9,2.9-1.7,4.3-2.5
	c0.7-0.4,1.5-0.8,2.2-1.3c0.4-0.2,0.7-0.4,1.1-0.6c0.4-0.2,0.8-0.4,1.1-0.6c3-1.6,6.1-3.2,9.3-4.7c3.2-1.5,6.5-2.9,10-4.2
	c6.8-2.7,14.1-5.1,21.7-7.2c7.6-2.1,15.6-4,24-5.7c8.4-1.7,17.1-3.2,26.3-4.7c9.1-1.5,18.6-2.8,28.5-4.4c-6.7,1-12.3,1.9-16.8,2.6
	c-4.5,0.7-8,1.2-10.5,1.6c-5,0.8-6.1,1-4.1,0.6c2-0.3,7.1-1.2,14.6-2.3c3.7-0.6,8.1-1.2,12.9-2c4.8-0.8,10.2-1.6,15.9-2.5
	c11.5-1.8,24.6-3.9,38.6-6c14-2,29-4,44.2-5.3c15.2-1.3,30.6-2,45.3-1.7c1.9,0.1,3.7,0.1,5.5,0.2c0.9,0,1.8,0.1,2.7,0.1
	c0.5,0,0.9,0,1.4,0l0.7,0l0.7,0c1.8,0.1,3.6,0.2,5.4,0.4c0.9,0.1,1.8,0.1,2.6,0.2c0.4,0,0.9,0.1,1.3,0.1s0.9,0.1,1.3,0.1
	c7,0.6,13.7,1.5,20,2.6c2.3,0.4,4.6,0.8,6.9,1.3c0.6,0.1,1.1,0.2,1.7,0.3c0.6,0.1,1.2,0.2,1.7,0.4c1.1,0.2,2.3,0.5,3.5,0.8
	c1.2,0.2,2.3,0.5,3.5,0.8c0.6,0.1,1.2,0.3,1.8,0.4l0.9,0.2l0.9,0.2c1.2,0.3,2.3,0.6,3.5,0.9c0.6,0.2,1.2,0.3,1.8,0.5
	s1.2,0.3,1.8,0.5c2.4,0.7,4.7,1.4,7,2.1c1.2,0.4,2.3,0.8,3.5,1.2c0.6,0.2,1.2,0.4,1.8,0.6c0.6,0.2,1.2,0.4,1.8,0.6
	c4.7,1.7,9.4,3.5,14,5.6c9.3,4.1,18.5,8.9,27.4,14.6c1.1,0.7,2.2,1.4,3.3,2.2c1.1,0.8,2.2,1.5,3.3,2.3l0.8,0.6l0.8,0.6
	c0.5,0.4,1.1,0.8,1.6,1.2s1.1,0.8,1.6,1.2c0.5,0.4,1,0.8,1.6,1.2s1,0.8,1.6,1.2c0.5,0.4,1.1,0.8,1.6,1.3c1,0.9,2.1,1.7,3.1,2.6
	l0.4,0.3l0.4,0.3l0.8,0.7c0.5,0.4,1,0.9,1.5,1.3l0.8,0.7l0.4,0.3l0.4,0.3c0.5,0.5,1,0.9,1.5,1.4c1,0.9,2,1.9,2.9,2.8
	c0.5,0.5,1,1,1.4,1.5l0.7,0.7c0.2,0.2,0.5,0.5,0.7,0.7c0.9,1,1.8,2,2.8,3c0.5,0.5,0.9,1,1.4,1.6c0.5,0.5,0.9,1,1.3,1.6l0.7,0.8
	c0.2,0.3,0.5,0.5,0.7,0.8c0.4,0.5,0.9,1.1,1.3,1.6c0.9,1.1,1.7,2.1,2.6,3.3c1.7,2.2,3.2,4.5,4.6,6.9c1.4,2.4,2.5,4.9,3.2,7.6
	l0.1,0.5c0,0.2,0.1,0.3,0.1,0.5c0.1,0.3,0.2,0.7,0.2,1l0.2,1c0.1,0.3,0.1,0.7,0.1,1c0.2,1.4,0.3,2.7,0.2,4.1c0,2.8-0.3,5.6-0.9,8.3
	c-0.3,1.4-0.6,2.8-0.9,4.1c-0.3,1.4-0.8,2.7-1.2,4.1c-3.3,10.9-8.3,21.4-14.4,31.2c-3,4.9-6.3,9.8-9.8,14.5
	c-3.5,4.7-7.2,9.3-11,13.8c-7.7,9-16,17.4-24.8,25.4c-8.8,8-18.1,15.5-27.8,22.6c-19.3,14.2-40,26.6-61.2,37.7
	c-21.2,11.1-43,21.1-64.6,30.6c-10.8,4.7-21.6,9.4-32.4,14c-5.4,2.3-10.7,4.6-16,6.9c-2.6,1.1-5.3,2.3-7.9,3.5s-5.3,2.3-7.9,3.4
	c-5.3,2.2-10.6,4.5-16.1,6.4c-5.5,1.9-11.1,3.6-16.8,4.9c-5.8,1.2-11.7,2-17.7,2.1c-0.4,0-0.8,0-1.1,0l-1.1,0c-0.8,0-1.5,0-2.3,0
	c-0.8,0-1.5-0.1-2.3-0.1l-1.1-0.1c-0.2,0-0.4,0-0.6,0l-0.6-0.1c-1.5-0.2-3-0.3-4.5-0.5c-0.8-0.1-1.5-0.2-2.3-0.3
	c-0.8-0.1-1.5-0.3-2.3-0.4l-1.1-0.2c-0.4-0.1-0.8-0.2-1.1-0.2c-0.8-0.2-1.5-0.3-2.3-0.5c-0.4-0.1-0.8-0.2-1.1-0.3l-1.1-0.3l-1.1-0.3
	c-0.4-0.1-0.8-0.2-1.1-0.3c-0.8-0.2-1.5-0.4-2.2-0.6c-0.4-0.1-0.8-0.2-1.1-0.3l-1.1-0.4c-0.8-0.2-1.5-0.5-2.2-0.7
	c-0.7-0.3-1.5-0.5-2.2-0.8c-1.5-0.5-3-1.1-4.4-1.6l-0.6-0.2l-0.6-0.2l-1.1-0.5c-0.7-0.3-1.5-0.6-2.2-0.9c-0.7-0.3-1.5-0.6-2.2-1
	c-0.4-0.2-0.7-0.3-1.1-0.5l-1.1-0.5c-0.7-0.3-1.5-0.7-2.2-1c-0.7-0.4-1.4-0.7-2.2-1.1c-5.8-2.8-11.5-6-17.2-9.6
	c-2.8-1.8-5.6-3.6-8.4-5.5c-1.4-1-2.7-2-4.1-3c-0.7-0.5-1.4-1-2-1.5c-0.7-0.5-1.4-1-2-1.6c-0.9-0.7-1.7-1.4-2.6-2.1l-2.6-2.1
	l-2.5-2.2c-0.8-0.7-1.6-1.5-2.5-2.2c-3.3-3-6.4-6-9.5-9.2c-6.1-6.4-11.6-13.2-16.7-20.4c-5-7.2-9.4-14.8-13.1-22.7
	c-1.9-4-3.6-8-5-12.1c-1.5-4.1-2.8-8.3-3.9-12.5s-2-8.5-2.7-12.8c-0.7-4.3-1.2-8.6-1.5-12.9c-0.6-8.6-0.4-17.4,0.7-25.9
	c1.1-8.6,3.1-17,6-25.1c1.5-4.1,3.2-8,5.1-11.9c0.2-0.5,0.5-1,0.7-1.4l0.8-1.4c0.5-0.9,1-1.9,1.6-2.8c0.6-0.9,1.1-1.9,1.6-2.8
	l1.7-2.7c2.4-3.6,4.9-7.1,7.6-10.4c2.7-3.4,5.6-6.6,8.6-9.7l2.3-2.3l2.3-2.2l0.6-0.6l0.6-0.6l1.2-1.1l1.2-1.1l1.2-1.1l1.2-1.1
	l0.6-0.5l0.6-0.5l2.5-2.1c1.7-1.4,3.3-2.7,5.1-4c6.8-5.3,13.9-10.2,21.3-14.6c7.4-4.5,15-8.5,22.8-12.2
	c15.6-7.4,31.9-13.4,48.4-18.2s33.5-8.5,50.6-11.4s34.4-5,51.7-6.6c8.7-0.8,17.4-1.5,26.1-2c8.7-0.5,17.5-0.8,26.2-1
	c17.5-0.3,35.1,0.3,52.6,1.9c4.4,0.4,8.8,0.9,13.1,1.7s8.6,1.7,12.8,2.9c4.2,1.3,8.3,2.9,12.1,5l1.4,0.8l1.4,0.9l0.7,0.4
	c0.2,0.2,0.5,0.3,0.7,0.4l1.3,0.9c0.9,0.6,1.8,1.3,2.6,2c0.4,0.3,0.8,0.7,1.2,1.1l0.6,0.5l0.6,0.6c3.2,3,6.1,6.3,8.8,9.9
	c1.3,1.8,2.6,3.6,3.8,5.4c1.2,1.8,2.4,3.7,3.6,5.6c4.7,7.6,9.3,15.3,13.5,23.2c4.2,7.9,8.1,16,11.3,24.5c1.6,4.2,2.9,8.5,4,12.9
	c1.1,4.4,1.9,8.8,2.3,13.3c0.9,9,0.2,18.1-2.3,26.8c-1.3,4.3-3,8.6-5.1,12.6c-2.1,4-4.6,7.9-7.3,11.5c-5.5,7.3-12,13.9-19,19.9
	c-7,6-14.5,11.6-22.1,16.9c-16.3,11.2-32.3,21.8-48.2,31.7c-15.9,9.9-31.6,19-47.4,27.3c-7.9,4.1-15.8,8-23.6,11.8
	c-1,0.5-2,0.9-3,1.4s-2,0.9-3,1.4c-2,0.9-4,1.8-5.9,2.6c-4,1.7-7.9,3.4-11.9,5c-1,0.4-2,0.8-3,1.2c-1,0.4-2,0.8-3,1.2
	c-1,0.4-2,0.8-3,1.2c-1,0.4-2,0.8-3,1.1c-2,0.7-4,1.5-6,2.2c-1,0.4-2,0.7-3,1.1c-1,0.4-2,0.7-3,1c-1,0.3-2,0.7-3,1s-2,0.6-3,1
	c-1,0.3-2,0.6-3,1c-0.5,0.2-1,0.3-1.5,0.5l-1.5,0.5c-2,0.6-4,1.2-6,1.8c-2,0.6-4,1.1-6,1.7c-0.7,0.2-1.5,0.4-2.2,0.6
	c-0.7,0.2-1.5,0.4-2.2,0.6c-1.5,0.4-3,0.8-4.4,1.1c-0.7,0.2-1.5,0.4-2.2,0.5c-0.8,0.2-1.5,0.4-2.2,0.5c-1.5,0.4-3,0.7-4.5,1
	c-1.5,0.3-3,0.6-4.5,1l-2.3,0.5c-0.4,0.1-0.8,0.2-1.1,0.2l-1.1,0.2l-4.5,0.9l-2.3,0.4l-2.3,0.4c-1.5,0.2-3,0.5-4.6,0.8l-1.1,0.2
	l-1.1,0.2c-0.8,0.1-1.5,0.2-2.3,0.3c-1.5,0.2-3,0.4-4.6,0.6c-1.5,0.2-3,0.4-4.6,0.5c-6.1,0.7-12.1,1.1-18.1,1.4
	c-6,0.2-11.9,0.2-17.7-0.2c-5.8-0.4-11.5-1-17-2c-0.7-0.1-1.4-0.2-2.1-0.4c-0.3-0.1-0.7-0.1-1-0.2c-0.3-0.1-0.7-0.1-1-0.2
	c-1.3-0.3-2.7-0.6-4-0.9c-1.3-0.3-2.6-0.7-3.9-1c-0.3-0.1-0.6-0.2-1-0.3s-0.6-0.2-0.9-0.3c-0.6-0.2-1.3-0.4-1.9-0.6
	c-0.6-0.2-1.3-0.4-1.9-0.6c-0.3-0.1-0.6-0.2-0.9-0.3c-0.3-0.1-0.6-0.2-0.9-0.3c-0.6-0.2-1.2-0.5-1.8-0.7c-0.3-0.1-0.6-0.2-0.9-0.3
	c-0.3-0.1-0.6-0.2-0.9-0.4c-0.6-0.2-1.2-0.5-1.8-0.7c-0.3-0.1-0.6-0.2-0.9-0.4c-0.3-0.1-0.6-0.3-0.9-0.4c-0.6-0.2-1.1-0.5-1.7-0.8
	c-0.6-0.3-1.1-0.5-1.7-0.8c-7-3.4-13.5-7.3-19.6-11.7c-3-2.2-5.9-4.5-8.7-6.9c-2.8-2.4-5.5-4.9-8-7.5c-5.1-5.1-9.8-10.5-14.1-16.2
	c-4.2-5.6-8-11.5-11.4-17.5c-0.4-0.8-0.8-1.5-1.3-2.2l-0.3-0.6l-0.3-0.6l-0.6-1.1c-0.4-0.8-0.8-1.5-1.2-2.3s-0.8-1.5-1.1-2.3
	c-0.7-1.5-1.4-3.1-2.2-4.6c-0.7-1.5-1.3-3.1-2-4.6c-2.6-6.2-4.7-12.5-6.6-18.8c-0.4-1.6-0.9-3.2-1.3-4.8l-0.2-0.6l-0.1-0.6l-0.3-1.2
	c-0.2-0.8-0.4-1.6-0.6-2.4l-0.3-1.2l-0.1-0.6l-0.1-0.6c-0.2-0.8-0.3-1.6-0.5-2.4c-0.2-0.8-0.3-1.6-0.5-2.4l-0.1-0.6l-0.1-0.6
	l-0.2-1.2c-0.1-0.8-0.3-1.6-0.4-2.4l-0.2-1.2l-0.1-0.6l-0.1-0.6c-0.2-1.6-0.4-3.2-0.7-4.8l-0.1-0.6c0-0.2,0-0.4-0.1-0.6l-0.1-1.2
	c-0.1-0.8-0.2-1.6-0.2-2.4l-0.1-1.2c0-0.4-0.1-0.8-0.1-1.2c-0.1-0.8-0.1-1.6-0.2-2.4c0.1,0.9,0.1,1.8,0.2,2.7
	c0.1,0.9,0.2,1.8,0.3,2.6c0.1,0.9,0.2,1.8,0.3,2.6c0.1,0.4,0.1,0.9,0.2,1.3c0.1,0.4,0.1,0.9,0.2,1.3c0.1,0.9,0.2,1.7,0.3,2.6
	c0.1,0.4,0.1,0.9,0.2,1.3l0.1,0.6l0.1,0.6c0.3,1.7,0.6,3.4,0.8,5c1.2,6.6,2.8,13,4.6,19.2c0.5,1.5,0.9,3.1,1.4,4.6
	c0.5,1.5,1.1,3,1.6,4.5l0.4,1.1c0.1,0.4,0.3,0.8,0.4,1.1c0.3,0.8,0.6,1.5,0.9,2.2c0.3,0.7,0.6,1.5,0.9,2.2s0.6,1.5,0.9,2.2l0.9,2.2
	c0.3,0.7,0.6,1.5,1,2.2c0.7,1.4,1.3,2.9,2,4.3l0.2,0.5l0.3,0.5l0.5,1.1c0.4,0.7,0.7,1.4,1.1,2.1l0.6,1.1l0.3,0.5
	c0.1,0.2,0.2,0.4,0.3,0.5c0.4,0.7,0.8,1.4,1.2,2.1c0.8,1.4,1.5,2.8,2.4,4.2c0.4,0.7,0.8,1.4,1.3,2.1l0.6,1c0.2,0.3,0.4,0.7,0.6,1
	c0.9,1.3,1.8,2.7,2.7,4c0.4,0.7,0.9,1.3,1.4,2s1,1.3,1.4,2c0.2,0.3,0.5,0.7,0.7,1c0.2,0.3,0.5,0.7,0.7,1c0.5,0.6,1,1.3,1.5,2
	c1,1.3,2,2.6,3.1,3.9c0.5,0.6,1.1,1.3,1.6,1.9c0.3,0.3,0.5,0.6,0.8,1l0.4,0.5l0.4,0.5c1.1,1.2,2.3,2.5,3.5,3.8
	c2.4,2.4,4.9,4.9,7.5,7.3c2.6,2.4,5.4,4.7,8.3,7c5.8,4.5,12.2,8.7,19.2,12.4c1.2,0.6,2.3,1.2,3.3,1.6c1,0.5,1.9,0.9,2.7,1.3
	c0.8,0.4,1.6,0.7,2.2,1c0.6,0.3,1.2,0.5,1.7,0.7c0.9,0.4,1.6,0.6,1.9,0.7c0.3,0.1,0.3,0.1,0,0c-0.3-0.1-0.9-0.3-1.6-0.6
	c-0.4-0.2-0.9-0.3-1.4-0.5c-0.2-0.1-0.5-0.2-0.8-0.3c-0.3-0.1-0.6-0.2-0.9-0.4c-0.6-0.3-1.3-0.5-2-0.9c-0.7-0.3-1.4-0.7-2.2-1
	c-0.2-0.1-0.4-0.2-0.6-0.3s-0.4-0.2-0.6-0.3c-0.4-0.2-0.8-0.4-1.2-0.6c-0.8-0.4-1.7-0.9-2.6-1.4c-3.6-1.9-7.5-4.3-11.5-7.1
	c-4-2.8-8-5.9-11.8-9.2c-3.8-3.3-7.4-6.8-10.5-10.1c-0.8-0.8-1.6-1.7-2.3-2.5c-0.2-0.2-0.4-0.4-0.6-0.6c-0.1-0.1-0.2-0.2-0.3-0.3
	c-0.1-0.1-0.2-0.2-0.3-0.3c-0.4-0.4-0.7-0.8-1-1.2c-0.7-0.8-1.3-1.5-1.9-2.3c-0.3-0.4-0.6-0.7-0.9-1.1c-0.3-0.4-0.6-0.7-0.8-1.1
	c-3.8-4.7-8.3-11-12.2-17.7l-0.8-1.2c-0.2-0.4-0.5-0.9-0.7-1.3c-0.5-0.8-0.9-1.7-1.4-2.5c-0.2-0.4-0.5-0.8-0.7-1.2
	c-0.2-0.4-0.4-0.8-0.7-1.3c-0.4-0.8-0.8-1.7-1.3-2.5c-0.2-0.4-0.4-0.8-0.6-1.2s-0.4-0.8-0.6-1.2c-0.4-0.8-0.7-1.6-1.1-2.4
	s-0.7-1.5-1.1-2.2c-0.2-0.4-0.3-0.7-0.5-1.1s-0.3-0.7-0.4-1.1c-0.3-0.8-0.6-1.5-1-2.3c-0.2-0.4-0.3-0.8-0.5-1.1l-0.2-0.6l-0.2-0.6
	c-0.6-1.5-1.2-3-1.7-4.5l-0.2-0.6l-0.2-0.6l-0.4-1.1c-0.3-0.8-0.5-1.5-0.8-2.3l-0.4-1.1l-0.2-0.6l-0.2-0.6c-0.2-0.8-0.5-1.5-0.7-2.3
	c-0.5-1.5-1-3-1.4-4.6c-0.4-1.5-0.8-3.1-1.2-4.6c-0.4-1.5-0.7-3.1-1.1-4.7c-0.1-0.4-0.2-0.8-0.3-1.2l-0.2-1.2
	c-0.2-0.8-0.3-1.6-0.5-2.4c-0.2-0.8-0.3-1.6-0.5-2.4c-0.1-0.8-0.3-1.6-0.4-2.4c-0.1-0.8-0.3-1.6-0.4-2.4c-0.1-0.4-0.1-0.8-0.2-1.2
	s-0.1-0.8-0.2-1.2c-0.2-1.6-0.4-3.2-0.7-4.9c-0.2-1.6-0.3-3.3-0.5-4.9c-0.6-6.6-1-13.4-0.9-20.4c0.1-3,0.1-5.2,0.2-6.9
	c0.1-1.7,0.2-2.8,0.2-3.8c0-0.5,0.1-0.9,0.1-1.3s0.1-0.8,0.1-1.3c0.1-0.9,0.2-1.9,0.3-3.4c0-0.6,0.1-1.2,0.2-1.8
	c0.1-0.6,0.1-1.2,0.2-1.8c0.1-0.6,0.1-1.2,0.2-1.8c0.1-0.6,0.1-1.2,0.2-1.7c0.2-1.1,0.3-2.3,0.5-3.4c0.1-0.6,0.2-1.1,0.2-1.7
	c0-0.3,0.1-0.6,0.1-0.8c0.1-0.3,0.1-0.6,0.1-0.8c0.2-1.1,0.4-2.2,0.6-3.3c0.1-0.6,0.2-1.1,0.3-1.6s0.2-1.1,0.3-1.6
	c0.2-1.1,0.4-2.1,0.7-3.2c0.1-0.3,0.1-0.5,0.2-0.8c0.1-0.3,0.1-0.5,0.2-0.8c0.1-0.5,0.2-1.1,0.4-1.6c1.9-8.3,4.3-16.1,6.9-23.2
	c5.3-14.3,11.7-26.4,19-36.3c0.3-0.5,0.7-0.9,1-1.4c0.3-0.5,0.7-0.9,1-1.4c0.7-0.9,1.4-1.8,2.1-2.7c0.2-0.2,0.3-0.4,0.5-0.7
	c0.2-0.2,0.4-0.4,0.6-0.6c0.4-0.4,0.7-0.8,1.1-1.3c0.7-0.8,1.4-1.7,2.2-2.5c0.8-0.8,1.5-1.6,2.3-2.4l0.3-0.3l0.3-0.3
	c0.2-0.2,0.4-0.4,0.6-0.6c0.4-0.4,0.8-0.8,1.2-1.1c0.4-0.4,0.8-0.8,1.2-1.1c0.2-0.2,0.4-0.4,0.6-0.6l0.6-0.5
	c0.8-0.7,1.6-1.4,2.4-2.1c6.5-5.6,13.4-10.2,20.6-14.2l0.8-0.5l0.9-0.5l1.7-0.9c1.1-0.6,2.3-1.2,3.4-1.8c1.2-0.6,2.3-1.1,3.5-1.7
	c0.6-0.3,1.2-0.6,1.8-0.8l0.9-0.4l0.9-0.4c4.8-2.1,9.7-4.1,14.9-6c3.2-1.2,6.5-2.3,9.8-3.3s6.7-2.1,10.1-3.1
	c-5.4,1.5-7.3,2.1-9.1,2.6c4.8-1.5,10.7-3.2,16.6-4.8s11.9-3.1,16.8-4.3c-4.9,1.2-10.9,2.8-16.8,4.3s-11.8,3.3-16.6,4.8
	c1.8-0.5,3.7-1.1,9.1-2.6c6.1-1.8,12.3-3.5,18.6-5.1c3.2-0.8,6.4-1.6,9.6-2.4c3.2-0.8,6.5-1.6,9.7-2.4c6.5-1.6,13.2-3.1,19.9-4.4
	c6.7-1.3,13.5-2.4,20.4-3.1c6.9-0.7,13.8-1,20.8-0.8l0.6,0l0.6,0l1.3,0.1l2.6,0.1c0.4,0,0.9,0.1,1.3,0.1l1.3,0.1l1.3,0.1
	c0.4,0,0.9,0.1,1.3,0.1c3.5,0.4,6.9,0.9,10.3,1.5c6.8,1.2,13.6,2.9,20.2,4.8c6.6,1.9,13.1,4.1,19.5,6.3c-0.2-0.1-0.5-0.2-0.7-0.2
	c-7.5-2.6-15-5-22.6-7.1c-1-0.3-1.9-0.5-2.9-0.8l-1.4-0.4c-0.5-0.1-1-0.2-1.4-0.4c-1.9-0.5-3.8-0.9-5.8-1.3
	c-3.9-0.8-7.8-1.5-11.7-2.1c-2-0.2-3.9-0.5-5.9-0.7l-1.5-0.1c-0.5,0-1-0.1-1.5-0.1c-1-0.1-2-0.1-3-0.2l-1.5-0.1l-1.5,0
	c-1,0-2,0-3-0.1c-0.5,0-1,0-1.5,0l-1.5,0l-1.5,0l-0.8,0c-0.2,0-0.5,0-0.8,0c-8,0.3-16.1,1.2-24.2,2.5c0.4-0.1,0.9-0.1,1.3-0.2
	s0.8-0.1,1.2-0.2c0.8-0.1,1.5-0.2,2.1-0.3c0.3,0,0.6-0.1,0.9-0.1c0.3,0,0.6-0.1,0.8-0.1c0.5-0.1,1-0.1,1.4-0.2
	c1.6-0.2,2.2-0.3,1.8-0.2s-1.6,0.2-3.8,0.5c-1.1,0.2-2.4,0.4-4,0.6c-0.4,0.1-0.8,0.1-1.2,0.2c-0.4,0.1-0.9,0.2-1.3,0.2
	c-0.9,0.2-1.8,0.3-2.8,0.5c-1,0.2-2,0.4-3.1,0.6c-1,0.2-2,0.4-3.1,0.6c-2,0.4-4.1,0.8-6.1,1.2c6.9-1.5,13.9-2.9,20.8-3.9
	c7-1,14-1.7,21-1.9c7-0.2,13.9,0.1,20.7,1c6.8,0.9,13.5,2.2,20,3.8c0,0,0.7,0.2,1.9,0.5c0.6,0.2,1.3,0.3,2.1,0.5
	c0.8,0.2,1.6,0.5,2.6,0.7c0.5,0.1,0.9,0.2,1.4,0.4c0.5,0.1,1,0.3,1.4,0.4c1,0.3,1.9,0.6,2.9,0.8c1.9,0.6,3.7,1.1,5.1,1.6
	c4.3,1.4,6.3,2.1,7.5,2.5c1.2,0.4,1.5,0.6,2.4,0.9c5.9,2,11.7,4.2,17.6,6.3c-3.1-1.2-7.9-2.9-13.3-4.9S356.8,48,351,46.2
	c-0.7-0.2-1.4-0.5-2.1-0.7c-0.7-0.2-1.4-0.4-2.1-0.6s-1.4-0.4-2-0.6c-0.7-0.2-1.3-0.4-2-0.5s-1.3-0.4-1.9-0.5
	c-0.6-0.2-1.2-0.3-1.8-0.5c-1.2-0.3-2.2-0.6-3.2-0.8c-1-0.2-1.9-0.5-2.7-0.6c-0.4-0.1-0.8-0.2-1.1-0.3c-0.3-0.1-0.7-0.1-1-0.2
	C329.9,40.6,329.2,40.5,329.2,40.5z"/>
<g>
	<path class="st1" d="M248.3,310.6v20.3c0,26.1-11.4,37.8-37.2,37.8h-35.6v-95.8h35.6C236.9,272.9,248.3,284.7,248.3,310.6z
		 M227.2,311c0-14.9-4.8-20.1-19-20.1h-11.6v59.7h11.6c14.2,0,19-5.2,19-20.1V311z"/>
	<path class="st1" d="M258.2,267h22v17.8h-22V267z M258.7,295.1h20.9v73.5h-20.9V295.1z"/>
	<path class="st1" d="M287.3,346.1h19.9c0,6.3,3.4,9.1,11.4,9.1c6.9,0,10.3-2.1,10.3-6.6c0-5.2-3.9-7.5-14.9-8.7
		c-18.2-2.1-25.4-8.3-25.4-22.2c0-15.9,10.7-24.2,30-24.2c19.4,0,29.3,8.2,29.3,23.4H328c0-5.8-2.8-8.3-9.6-8.3
		c-6.2,0-9.3,2.4-9.3,6.6c0,4.8,3.8,6.9,14.5,8.2c18.6,2.1,25.8,9,25.8,23.2c0,16.1-10.1,23.8-31,23.8
		C297.2,370.3,287.3,362.4,287.3,346.1z"/>
	<path class="st1" d="M400,352.3v16.3h-15.4c-15.1,0-21.4-7-21.4-23.9v-33.8h-10.7v-15.8h11.1l1.1-18.3h19.3v18.3h15.2v15.8h-15.2
		v32.5c0,6.9,1.7,8.9,7.8,8.9L400,352.3L400,352.3z"/>
	<path class="st1" d="M449.6,293.7v19.4h-3.9c-10.9,0-16.1,4.1-18,14.4v41.1h-20.9v-73.5h17.8l0.9,13.7c2.8-10.4,8.6-15.1,18.7-15.1
		L449.6,293.7L449.6,293.7z"/>
	<path class="st1" d="M455.2,267h22v17.8h-22V267z M455.8,295.1h20.9v73.5h-20.9V295.1z"/>
	<path class="st1" d="M485.7,339v-14.4c0-20.7,10.9-31.3,32.1-31.3c20.6,0,31.1,9.7,31.4,29.7h-19.8c-0.4-8.5-3.4-12.8-11.3-12.8
		s-11.5,4.4-11.5,14.5v14.2c0,10,3.7,14.4,11.5,14.4c7.9,0,11-4.4,11.3-12.8h19.8c-0.3,20-10.8,29.7-31.4,29.7
		C496.6,370.3,485.7,359.8,485.7,339z"/>
	<path class="st1" d="M600,352.3v16.3h-15.4c-15.1,0-21.4-7-21.4-23.9v-33.8h-10.7v-15.8h11.1l1.1-18.3h19.3v18.3h15.2v15.8h-15.2
		v32.5c0,6.9,1.7,8.9,7.8,8.9L600,352.3L600,352.3z"/>
</g>
<g>
	<path class="st1" d="M3,205.4v-30.2c0-37.6,16.7-54.8,52.5-54.8c34.6,0,50.9,16.1,51.7,51.1H78.7c-0.6-17.9-6.9-25.4-22.8-25.4
		c-16.7,0-23,8.4-23,29.8v29c0,21.5,6.4,29.8,23,29.8c15.9,0,22.3-7.6,22.8-25.2h28.4c-0.8,34.8-17.1,50.9-51.7,50.9
		C19.7,260.2,3,242.9,3,205.4z"/>
	<path class="st1" d="M202.5,154.1v103.7h-25l-0.8-12.7c-8.1,10.5-17.7,15.1-30.6,15.1c-21.7,0-33-12.5-33-37.4v-68.8h29.4v66.2
		c0,10.1,3.8,14.5,12.1,14.5c7.9,0,14.1-4,18.5-13.9v-66.8H202.5z"/>
	<path class="st1" d="M212,112.8h29.4v145.1H212V112.8z"/>
	<path class="st1" d="M314.8,234.8v23.1h-21.7c-21.3,0-30.2-9.9-30.2-33.8v-47.7h-15.1v-22.3h15.7l1.6-25.8h27.2v25.8h21.5v22.3
		h-21.5v45.9c0,9.7,2.4,12.5,10.9,12.5H314.8z"/>
	<path class="st1" d="M409,154.1v103.7h-25l-0.8-12.7c-8.1,10.5-17.7,15.1-30.6,15.1c-21.7,0-33-12.5-33-37.4v-68.8h29.4v66.2
		c0,10.1,3.8,14.5,12.1,14.5c8,0,14.1-4,18.5-13.9v-66.8H409z"/>
	<path class="st1" d="M474.9,152.1v27.4h-5.6c-15.3,0-22.6,5.8-25.4,20.3v58h-29.4V154.1h25l1.2,19.3c4-14.7,12.1-21.3,26.4-21.3
		L474.9,152.1L474.9,152.1z"/>
	<path class="st1" d="M565.1,191.1v66.8h-24.8l-1-12.9c-7.2,10.1-17.5,15.3-31.2,15.3c-20.5,0-32.8-11.5-32.8-32.2
		c0-21.9,13.7-34,41.3-34h19.1v-3.4c0-10.7-4.2-15.9-14.7-15.9c-10.1,0-14.1,4.6-14.5,11.7h-28.4c1.6-23.1,15.5-34.8,44.1-34.8
		C551.6,151.7,565.1,164.1,565.1,191.1z M535.7,225.5v-11.9H522c-13.3,0-17.7,4.6-17.7,12.1c0,7.6,4.4,11.5,12.7,11.5
		C525.4,237.2,531.6,233.2,535.7,225.5z"/>
	<path class="st1" d="M569.3,112.8h29.4v145.1h-29.4V112.8z"/>
</g>
<path class="st1" d="M565.1,191v66.8h-24.8l-1-12.9c-7.2,10.1-17.5,15.3-31.2,15.3c-20.5,0-32.8-11.5-32.8-32.2
	c0-21.9,13.7-34,41.3-34h19.1v-3.4c0-10.7-4.2-15.9-14.7-15.9c-10.1,0-14.1,4.6-14.5,11.7h-28.4c1.6-23.1,15.5-34.8,44.1-34.8
	C551.6,151.6,565.1,164,565.1,191z M535.7,225.4v-11.9H522c-13.3,0-17.7,4.6-17.7,12.1c0,7.6,4.4,11.5,12.7,11.5
	C525.4,237.1,531.6,233.1,535.7,225.4z"/>
<path class="st1" d="M569.3,112.8h29.4v145.1h-29.4V112.8z"/>
<path class="st2" d="M466.6,95c-3-3.9-6-7.7-9.3-11.3c-0.8-0.9-1.7-1.8-2.5-2.6l-0.6-0.7l-0.6-0.6l-1.3-1.3l-1.3-1.3
	c-0.4-0.4-0.9-0.8-1.3-1.2c-0.9-0.8-1.8-1.6-2.7-2.4c-3.6-3.2-7.4-6.1-11.3-9c-3.9-2.8-7.9-5.4-11.9-8c-4-2.5-8.1-4.9-12.3-7.2
	c-4.1-2.3-8.3-4.5-12.5-6.7c-4.2-2.2-8.3-4.3-12.5-6.5s-8.3-4.2-12.5-6.3c-8.3-4.1-16.7-8-25.3-11.4s-17.2-6.4-26.1-8.6
	s-17.9-3.6-26.9-3.9c-1.1,0-2.3,0-3.4-0.1c-1.1,0-2.3,0-3.4,0.1c-1.1,0.1-2.2,0.1-3.4,0.2l-0.9,0.1c-0.3,0-0.6,0-0.9,0.1l-1.7,0.2
	l-1.7,0.2l-0.9,0.1c-0.3,0-0.6,0.1-0.8,0.1c-1.1,0.2-2.2,0.3-3.4,0.5c-0.3,0-0.6,0.1-0.8,0.1l-0.8,0.2L272.1,8l-1.7,0.3
	c-0.3,0.1-0.5,0.1-0.8,0.2l-0.8,0.2c-0.7,0.1-1.3,0.3-2,0.4c-0.3,0.1-0.6,0.1-1,0.2c-0.1,0-0.3,0.1-0.5,0.1s-0.3,0.1-0.5,0.1
	c-1.2,0.3-2.4,0.6-3.7,1c-0.2,0-0.3,0.1-0.5,0.1c-0.2,0.1-0.3,0.1-0.5,0.1c-0.3,0.1-0.6,0.2-1,0.3c-0.7,0.2-1.3,0.4-2,0.6
	c-0.4,0.1-0.7,0.2-1.1,0.3c-0.4,0.1-0.8,0.3-1.1,0.4c-0.8,0.3-1.6,0.6-2.5,0.9c-5.3,1.9-10.5,4-15.6,6.5l-1.8,0.9l-0.9,0.4
	c-0.3,0.1-0.6,0.3-0.9,0.5c-1.2,0.6-2.3,1.2-3.5,1.8c-1.1,0.6-2.3,1.3-3.4,1.9c-0.3,0.2-0.6,0.3-0.9,0.5l-0.9,0.5l-1.7,1
	c-0.6,0.3-1.1,0.7-1.7,1l-1.7,1c-1.1,0.7-2.2,1.4-3.3,2.1c-1.1,0.7-2.2,1.4-3.3,2.2c-0.6,0.3-1.1,0.8-1.6,1.1l-1.6,1.1
	c-0.7,0.5-1.5,1.1-2.2,1.6c-0.7,0.6-1.5,1.1-2.2,1.7c-0.7,0.6-1.5,1.1-2.2,1.7c-0.7,0.6-1.4,1.2-2.2,1.8c0,0-0.2,0.1-0.2,0.2
	c-1.1,0.9-1.9,1.6-2.4,1.9c-0.5,0.4-0.6,0.5-0.6,0.5s0.4-0.3,0.8-0.7c0.5-0.4,1.1-0.9,1.8-1.4c0.8-0.6,1.6-1.3,2.3-1.9
	c0.4-0.3,0.8-0.6,1.1-0.9c0.4-0.3,0.8-0.6,1.1-0.8c1.5-1.1,2.8-2.2,4.2-3.1c-0.2,0.2-0.5,0.3-0.8,0.5s-0.6,0.4-0.9,0.7
	c-0.7,0.5-1.5,1.1-2.3,1.7c-0.4,0.3-0.8,0.6-1.2,0.9c-0.4,0.3-0.9,0.6-1.2,1c-0.8,0.7-1.6,1.3-2.3,1.8c-1.9,1.5-3.9,3.3-6.1,5.1
	c-0.1,0.1-0.3,0.2-0.4,0.3c-0.1,0.1-0.3,0.2-0.4,0.4c-0.3,0.2-0.5,0.5-0.8,0.7c-0.5,0.5-1.1,1-1.6,1.5s-1.1,1-1.7,1.5
	c-0.6,0.5-1.1,1.1-1.7,1.7c-0.9,0.8-1.7,1.7-2.6,2.5c-0.9,0.9-1.7,1.7-2.5,2.6c-0.4,0.4-0.9,0.9-1.3,1.3c-0.4,0.5-0.8,0.9-1.2,1.4
	c-0.8,0.9-1.7,1.8-2.5,2.8c-0.4,0.5-0.8,0.9-1.2,1.4s-0.8,1-1.2,1.4s-0.8,1-1.2,1.4l-0.6,0.7l-0.6,0.8c-0.8,1-1.6,2-2.4,3l-0.6,0.8
	c-0.2,0.2-0.4,0.5-0.6,0.8c-0.4,0.5-0.8,1-1.2,1.5c1.7-2.3,3.5-4.5,5.1-6.6c0.2-0.3,0.4-0.5,0.6-0.8c0.2-0.2,0.4-0.5,0.6-0.8
	c0.4-0.5,0.9-1,1.3-1.5c0.4-0.5,0.8-1,1.2-1.5l0.3-0.4l0.3-0.3c0.2-0.2,0.4-0.5,0.6-0.7c0.8-0.9,1.7-1.8,2.5-2.7
	c0.2-0.2,0.4-0.5,0.6-0.7c0.2-0.2,0.4-0.4,0.6-0.6c0.4-0.4,0.8-0.8,1.2-1.3c0.8-0.8,1.6-1.6,2.4-2.4c0.8-0.8,1.6-1.5,2.3-2.3
	c0.6-0.5,1.1-1.1,1.6-1.6s1.1-1,1.6-1.5c0.6-0.5,1.1-1,1.6-1.5c0.3-0.2,0.6-0.5,0.8-0.8s0.5-0.5,0.8-0.7c1.1-1,2.2-1.9,3.3-2.9
	l0.8-0.7l0.9-0.7l1.7-1.4c0.6-0.5,1.3-1.1,2-1.6c0.7-0.5,1.4-1,2.1-1.6l-1.8,1.4c-0.6,0.5-1.2,0.9-1.8,1.4l-1.7,1.4l-0.9,0.7
	l-0.4,0.3l-0.4,0.4c-1.1,1-2.3,2-3.4,2.9c-0.6,0.5-1.1,1-1.7,1.5l-1.7,1.5l-1.7,1.5l-1.6,1.6l-1.6,1.6c-0.5,0.5-1.1,1-1.6,1.6
	l-3.1,3.2c-0.5,0.5-1,1.1-1.5,1.6l-1.5,1.7l-1.5,1.7L176,67l-1.5,1.7c-0.5,0.6-1,1.1-1.4,1.7l-2.8,3.5c-0.5,0.6-0.9,1.2-1.4,1.8
	l-1.3,1.8l-1.3,1.8l-1.3,1.8l-1.3,1.8c-0.4,0.6-0.9,1.2-1.3,1.8l-2.5,3.7c-0.4,0.6-0.8,1.3-1.2,1.9l-1.2,1.9
	c-0.4,0.6-0.7,1.2-1.1,1.7c-0.4,0.6-0.7,1.2-1,1.7c-0.7,1.2-1.3,2.3-1.9,3.4c-0.6,1.1-1.2,2.2-1.7,3.2c-0.3,0.5-0.6,1-0.8,1.5
	c-0.1,0.2-0.3,0.5-0.4,0.7c-0.1,0.2-0.2,0.5-0.4,0.7c-3.9,7.7-7.2,15.7-9.7,23.1c-0.6,1.9-1.2,3.6-1.7,5.4c-0.3,0.9-0.5,1.7-0.8,2.6
	c-0.1,0.4-0.2,0.9-0.4,1.3c-0.1,0.4-0.2,0.8-0.3,1.2c-0.4,1.6-0.8,3.2-1.2,4.7c-0.3,1.5-0.6,2.9-0.9,4.2c-0.1,0.5-0.2,1-0.3,1.6
	c-0.1,0.5-0.2,1.1-0.3,1.6c-0.2,1.1-0.4,2.1-0.6,3.1l-0.1,0.8l-0.1,0.4l-0.1,0.4c-0.1,0.5-0.1,1.1-0.2,1.6c-0.1,1.1-0.3,2.1-0.4,3.2
	c0.1-0.8,0.2-1.7,0.3-2.4c-0.1,0.9-0.2,1.8-0.4,2.6c0,0.2-0.1,0.4-0.1,0.6c0,0.2,0,0.4-0.1,0.6c0,0.4-0.1,0.7-0.1,1
	c-0.9,9-1.1,18-0.4,27c0.7,9,2.2,18,4.7,26.7c0.1,0.4,0.2,0.7,0.3,1.1l0.1,0.5l0.2,0.5c0.2,0.7,0.4,1.4,0.7,2.1
	c0.2,0.7,0.5,1.4,0.7,2.1l0.4,1.1l0.4,1.1c1,2.8,2.2,5.6,3.4,8.3c0.3,0.7,0.6,1.4,1,2s0.7,1.3,1,2c0.2,0.3,0.4,0.7,0.5,1l0.6,1
	c0.4,0.7,0.7,1.3,1.1,2c0.2,0.3,0.4,0.7,0.6,1l0.6,1l1.2,1.9l0.6,1c0.1,0.2,0.2,0.3,0.3,0.5l0.3,0.5l1.3,1.9c0,0,0.3,0.4,0.7,1.1
	c0.2,0.4,0.5,0.8,0.8,1.2s0.7,0.9,1.1,1.5c0.4,0.5,0.8,1.1,1.2,1.6c0.4,0.6,0.8,1.1,1.2,1.6c0.4,0.5,0.8,1,1.2,1.5
	c0.2,0.2,0.4,0.5,0.5,0.7c0.1,0.1,0.2,0.2,0.2,0.3c0.1,0.1,0.2,0.2,0.2,0.3c0.8,0.9,1.7,2,2.6,3.1c0.1,0.1,0.2,0.3,0.4,0.4
	c0.1,0.1,0.3,0.3,0.4,0.4c0.3,0.3,0.5,0.6,0.8,0.9c0.5,0.6,1.1,1.2,1.7,1.8c0.1,0.2,0.3,0.3,0.4,0.5c0.1,0.1,0.3,0.3,0.5,0.5
	c0.3,0.3,0.6,0.6,0.9,1c0.6,0.6,1.3,1.3,1.9,2c0.7,0.7,1.4,1.3,2.1,2c0.4,0.4,0.7,0.7,1.1,1c0.2,0.2,0.4,0.4,0.6,0.5
	c0.2,0.2,0.4,0.4,0.6,0.5c-0.5-0.4-0.9-0.8-1.3-1.3c-0.4-0.4-0.9-0.8-1.3-1.3c-0.4-0.4-0.9-0.8-1.3-1.2s-0.8-0.9-1.2-1.3
	c-0.8-0.8-1.6-1.7-2.4-2.5c-0.8-0.9-1.5-1.7-2.3-2.5c-0.4-0.4-0.8-0.8-1.1-1.2c-0.4-0.4-0.7-0.9-1.1-1.3c-0.7-0.8-1.4-1.7-2.1-2.5
	c-0.7-0.9-1.3-1.7-2-2.5c-0.3-0.4-0.6-0.8-1-1.2c-0.3-0.4-0.6-0.9-0.9-1.3c-1.8-2.4-3.6-5.1-5.4-7.9c-0.4-0.7-0.9-1.4-1.3-2.2
	c-0.2-0.4-0.4-0.7-0.7-1.1c-0.2-0.4-0.4-0.8-0.6-1.1c-0.4-0.8-0.8-1.5-1.3-2.3c-0.2-0.4-0.4-0.8-0.6-1.2c-0.2-0.4-0.4-0.8-0.6-1.2
	c-1.6-3.2-3-6.5-4.3-9.8c-1.3-3.4-2.4-6.8-3.4-10.3c0.9,3.5,2.1,6.9,3.4,10.3c1.3,3.4,2.8,6.7,4.3,9.8c0.2,0.4,0.4,0.8,0.6,1.2
	c0.2,0.4,0.4,0.8,0.6,1.2c0.4,0.8,0.8,1.5,1.3,2.3c0.2,0.4,0.4,0.8,0.6,1.1c0.2,0.4,0.4,0.7,0.7,1.1c0.4,0.7,0.9,1.4,1.3,2.2
	c1.8,2.8,3.6,5.5,5.4,7.9c0.3,0.4,0.6,0.9,0.9,1.3c0.3,0.4,0.6,0.8,1,1.2c0.6,0.8,1.3,1.7,2,2.5c0.7,0.8,1.4,1.7,2.1,2.5
	c0.4,0.4,0.7,0.9,1.1,1.3c0.4,0.4,0.8,0.8,1.1,1.2c0.8,0.8,1.5,1.7,2.3,2.5c0.8,0.8,1.6,1.7,2.4,2.5c0.4,0.4,0.8,0.9,1.2,1.3
	s0.9,0.8,1.3,1.2c0.4,0.4,0.9,0.8,1.3,1.3c0.4,0.4,0.9,0.9,1.3,1.3c1.6,1.4,3.2,3,5,4.4c0.4,0.4,0.9,0.8,1.3,1.1
	c0.2,0.2,0.4,0.4,0.7,0.6s0.4,0.4,0.7,0.5c0.9,0.7,1.8,1.5,2.7,2.2c0.5,0.4,0.9,0.8,1.4,1.1c0.5,0.4,0.9,0.7,1.4,1.1
	c0.5,0.4,1,0.8,1.4,1.1c0.5,0.4,1,0.7,1.5,1.1c1,0.7,2,1.5,3,2.2c1,0.7,2,1.4,3,2.2c8.1,5.7,16.6,11.1,24.2,15.6
	c-1.2-0.7-2.4-1.4-3.6-2.1c-0.6-0.4-1.2-0.7-1.7-1c-0.3-0.2-0.6-0.4-0.9-0.5c-0.3-0.2-0.6-0.4-0.9-0.5c-1.1-0.7-2.2-1.4-3.4-2.1
	c-0.6-0.4-1.1-0.7-1.7-1c-0.3-0.2-0.6-0.3-0.8-0.5s-0.5-0.4-0.8-0.5c-2.1-1.4-4.2-2.8-6.3-4.2c-1-0.7-2-1.4-3-2.1
	c-0.2-0.2-0.5-0.4-0.8-0.5c-0.2-0.2-0.5-0.4-0.7-0.5c-0.5-0.4-1-0.7-1.5-1c-1.9-1.4-3.8-2.8-5.6-4.1c-0.9-0.7-1.8-1.4-2.7-2.1
	c-0.4-0.4-0.9-0.7-1.3-1s-0.9-0.7-1.3-1c-0.9-0.7-1.7-1.4-2.5-2.1c-0.8-0.7-1.6-1.4-2.4-2.1c-1.6-1.4-3.1-2.8-4.6-4.2
	c-0.2-0.2-0.4-0.4-0.6-0.5c-0.2-0.2-0.4-0.4-0.6-0.5c-0.4-0.4-0.7-0.7-1.1-1c-0.7-0.7-1.4-1.4-2.1-2c-0.7-0.7-1.3-1.3-1.9-2
	c-0.3-0.3-0.6-0.6-0.9-1c-0.1-0.2-0.3-0.3-0.5-0.5c-0.1-0.2-0.3-0.3-0.4-0.5c-0.6-0.6-1.1-1.2-1.7-1.8c-0.3-0.3-0.5-0.6-0.8-0.9
	c-0.1-0.1-0.3-0.3-0.4-0.4c-0.1-0.1-0.2-0.3-0.4-0.4c-1-1.1-1.9-2.1-2.6-3.1c-0.1-0.1-0.2-0.2-0.2-0.3c-0.1-0.1-0.2-0.2-0.2-0.3
	c-0.2-0.2-0.4-0.5-0.5-0.7c-0.4-0.5-0.8-1-1.2-1.5c-0.4-0.5-0.8-1.1-1.2-1.6s-0.8-1.1-1.2-1.6c-0.4-0.5-0.7-1-1.1-1.5
	s-0.6-0.9-0.8-1.2c-0.5-0.7-0.7-1.1-0.7-1.1l-1.3-1.9l-0.3-0.5c-0.1-0.2-0.2-0.3-0.3-0.5l-0.6-1l-1.2-1.9l-0.6-1
	c-0.2-0.3-0.4-0.7-0.6-1c-0.4-0.7-0.7-1.3-1.1-2l-0.6-1c-0.2-0.3-0.4-0.7-0.5-1c-0.3-0.7-0.7-1.3-1-2s-0.6-1.4-1-2
	c-1.2-2.7-2.4-5.5-3.4-8.3l-0.4-1.1l-0.4-1.1c-0.2-0.7-0.5-1.4-0.7-2.1s-0.4-1.4-0.7-2.1l-0.2-0.5l-0.1-0.5
	c-0.1-0.4-0.2-0.7-0.3-1.1c1.2,4.3,2.6,8.5,4.3,12.6s3.6,8.1,5.8,12c0.5,1,1.1,1.9,1.7,2.9l0.9,1.4c0.3,0.5,0.6,1,0.9,1.4
	c1.2,1.9,2.4,3.8,3.8,5.5c2.6,3.7,5.4,7.1,8.4,10.5c0.8,0.8,1.5,1.7,2.3,2.5l0.6,0.6l0.6,0.6l1.2,1.2l1.2,1.2
	c0.2,0.2,0.4,0.4,0.6,0.6l0.6,0.6c0.8,0.8,1.6,1.6,2.4,2.3c3.3,3.1,6.7,6.1,10.2,8.9l1.3,1.1c0.4,0.4,0.9,0.7,1.3,1
	c0.9,0.7,1.8,1.4,2.7,2.1c0.9,0.7,1.8,1.4,2.7,2l1.4,1l1.4,1c3.7,2.7,7.5,5.2,11.3,7.7c0.8,0.5,1.5,1,2.3,1.5l2.3,1.5
	c1.6,1,3.1,2,4.7,2.9c1.6,0.9,3.1,1.9,4.7,2.8l1.2,0.7l0.6,0.4l0.6,0.3l2.4,1.3c6.4,3.6,12.9,7,19.4,10.2c1.6,0.8,3.3,1.6,4.9,2.4
	c0.8,0.4,1.6,0.8,2.5,1.1l2.5,1.1l2.5,1.1l0.6,0.3l0.6,0.3l1.3,0.5c1.7,0.7,3.3,1.4,5,2.1c1.7,0.7,3.4,1.4,5,2.1l2.5,1l2.5,1
	c1.7,0.6,3.4,1.3,5.1,2c1.7,0.6,3.4,1.2,5.1,1.9c0.9,0.3,1.7,0.6,2.5,0.9l2.6,0.9c1.7,0.6,3.4,1.2,5.1,1.8c3.4,1.1,6.9,2.3,10.3,3.3
	c6.9,2.2,13.8,4.1,20.7,6c1.7,0.5,3.5,0.9,5.2,1.4l1.3,0.4l1.3,0.3l2.6,0.6l2.6,0.6l1.3,0.3l1.3,0.3c1.7,0.4,3.5,0.8,5.2,1.2
	c7,1.6,14,3.1,21,4.5c14,2.8,28.1,5.1,42.2,7.3c7.1,1,14.1,2,21.2,3s14.1,1.8,21.2,2.5c7.1,0.7,14.2,1.2,21.3,1.3
	c7.1,0.1,14.3-0.2,21.3-1.2c7.1-1,14-2.8,20.7-5.5c3.3-1.4,6.5-3,9.6-4.8s6-4,8.7-6.3c0.7-0.6,1.3-1.2,2-1.8l1.9-1.9l1.8-1.9
	c0.6-0.7,1.2-1.3,1.8-2c2.3-2.7,4.5-5.6,6.4-8.6c3.9-6,7-12.5,9.7-19.2s4.7-13.5,6.5-20.5s3.2-14,4.6-21.1c0.7-3.5,1.3-7.1,1.9-10.6
	c0.6-3.6,1.1-7.1,1.5-10.7s0.5-7.2,0.4-10.8c-0.1-3.6-0.5-7.2-1.4-10.8c-0.8-3.5-2-7-3.5-10.3c-1.5-3.3-3.3-6.5-5.3-9.5
	c-4-6.1-8.7-11.7-13.7-17c-10-10.7-20.5-20.8-31.6-30.6c-5.5-4.9-11.2-9.6-16.9-14.3c-5.7-4.7-11.6-9.2-17.5-13.7
	c-1.5-1.1-3-2.2-4.5-3.4c-1.5-1.1-3-2.2-4.5-3.3c-3-2.2-6-4.4-9.1-6.6c-6.1-4.3-12.2-8.6-18.5-12.8c-6.2-4.2-12.6-8.3-19-12.3
	c-6.5-4-13-7.8-19.7-11.5c-14.5-8-29.3-15.2-44.5-21.2c-7.6-3-15.3-5.7-23.1-8.1c-7.8-2.3-15.7-4.3-23.7-5.9c-8-1.6-16-2.8-24-3.5
	c-4-0.4-8-0.6-12.1-0.8c-4-0.1-8.1-0.1-12.1,0c-4,0.2-8,0.5-12,0.9c-4,0.5-8,1.1-11.9,1.9c-3.9,0.8-7.8,1.8-11.7,3
	c-1.9,0.6-3.8,1.2-5.7,2c-0.9,0.3-1.9,0.7-2.8,1.1l-1.4,0.6c-0.5,0.2-0.9,0.4-1.4,0.6l-2.7,1.2l-2.7,1.3c-0.4,0.2-0.9,0.5-1.3,0.7
	l-1.3,0.7c-0.9,0.5-1.8,1-2.6,1.5c-3.5,2-6.8,4.2-10.1,6.5c-3.2,2.3-6.3,4.8-9.3,7.5l-1.1,1l-0.6,0.5l-0.6,0.5l-2.2,2.1l-2.1,2.1
	c-0.4,0.3-0.7,0.7-1,1.1l-1,1.1c-2.7,2.9-5.3,5.9-7.7,9.1c-2.4,3.1-4.7,6.4-6.9,9.7l-0.8,1.2c-0.3,0.4-0.5,0.8-0.8,1.3l-1.5,2.5
	l-1.5,2.6l-0.4,0.7l-0.4,0.7l-0.7,1.3c-1.8,3.5-3.6,7.1-5.1,10.7c-1.5,3.6-2.9,7.3-4.2,11.1l-0.9,2.8c-0.3,0.9-0.6,1.9-0.8,2.8
	c-0.3,0.9-0.5,1.9-0.8,2.9l-0.4,1.4l-0.4,1.4l-0.4,1.4l-0.2,0.7l-0.2,0.7l-0.6,2.9l-0.6,2.9l-0.1,0.7l-0.1,0.7l-0.2,1.5l-0.2,1.5
	l-0.2,1.5l-0.2,1.5l-0.1,0.7l-0.1,0.7l-0.4,2.9l-0.3,2.9c-0.3,3.9-0.6,7.8-0.6,11.7c-0.1,3.9,0,7.8,0.2,11.7l0.2,2.9l0.2,2.9
	l0.1,0.7l0.1,0.7l0.1,1.5l0.1,1.5l0.2,1.5l0.2,1.5c0.1,0.5,0.1,1,0.2,1.5l0.4,2.9c0.3,1.9,0.6,3.9,1,5.8c0.7,3.8,1.5,7.6,2.4,11.4
	c0.9,3.8,2,7.5,3.1,11.2s2.4,7.4,3.8,11c1.4,3.6,2.9,7.2,4.5,10.7c1.6,3.5,3.4,6.9,5.2,10.3l1.4,2.5l1.5,2.5c0.5,0.8,1,1.6,1.5,2.4
	l0.8,1.2c0.2,0.4,0.5,0.8,0.8,1.2c2.1,3.2,4.5,6.2,7,9.2l0.9,1.1l0.5,0.5l0.5,0.5l1.9,2.1c1.4,1.4,2.7,2.7,4.1,4l1.1,1
	c0.4,0.3,0.7,0.6,1.1,0.9l1.1,0.9c0.4,0.3,0.7,0.6,1.1,0.9l2.3,1.7c0.4,0.3,0.8,0.6,1.2,0.8l1.2,0.8c0.4,0.3,0.8,0.5,1.2,0.8
	l1.2,0.8l1.2,0.8c0.2,0.1,0.4,0.3,0.6,0.4l0.6,0.4l2.5,1.4l2.5,1.4c3.4,1.8,6.8,3.4,10.3,4.9c3.5,1.5,7.1,2.8,10.6,4.1
	c3.6,1.3,7.2,2.5,10.8,3.6c3.6,1.1,7.2,2.3,10.8,3.5c7.2,2.3,14.3,4.6,21.5,7c14.3,4.7,28.5,9.3,42.8,13.7
	c14.3,4.4,28.6,8.6,43.1,12.4l5.4,1.4l2.7,0.7l2.7,0.7l5.4,1.3c1.8,0.4,3.6,0.8,5.5,1.2c1.8,0.4,3.6,0.8,5.5,1.2l2.7,0.6l2.7,0.6
	c1.8,0.4,3.7,0.7,5.5,1.1c1.8,0.4,3.7,0.7,5.5,1c7.3,1.3,14.7,2.5,22.1,3.4c7.4,0.9,14.8,1.7,22.2,2.2c14.9,1,29.8,1.1,44.7,0
	c7.4-0.6,14.9-1.4,22.3-2.6l2.8-0.5l2.8-0.5l1.4-0.2c0.5-0.1,0.9-0.2,1.4-0.3l2.8-0.5c3.7-0.8,7.3-1.6,10.9-2.6
	c3.6-1,7.2-2,10.8-3.2c1.8-0.6,3.5-1.2,5.3-1.9l2.6-1c0.4-0.2,0.9-0.4,1.3-0.5l1.3-0.5c3.5-1.5,6.9-3.1,10.2-4.8
	c3.3-1.8,6.6-3.7,9.7-5.8c3.1-2.1,6.2-4.4,8.8-7.2c1.3-1.4,2.6-2.8,3.7-4.4c1.1-1.6,2-3.3,2.8-5c0.8-1.8,1.3-3.6,1.8-5.5
	c0.5-1.9,0.8-3.8,1-5.6c0.5-3.8,0.6-7.6,0.8-11.4c0.2-7.6-0.2-15.2-1.2-22.7l-0.2-1.4c-0.1-0.5-0.1-1-0.2-1.4l-0.4-2.8
	c-0.1-1-0.3-1.9-0.5-2.8l-0.5-2.8c-0.2-0.9-0.4-1.9-0.6-2.8l-0.3-1.4c-0.1-0.5-0.2-0.9-0.3-1.4l-0.7-2.8c-0.2-0.9-0.5-1.9-0.7-2.8
	c-2-7.4-4.5-14.6-7.4-21.7l-0.5-1.3l-0.6-1.3l-1.2-2.6l-0.3-0.7l-0.3-0.7l-0.6-1.3l-1.2-2.6l-1.3-2.6l-0.6-1.3
	c-0.2-0.4-0.4-0.9-0.7-1.3l-1.3-2.6l-0.7-1.3c-0.2-0.4-0.5-0.9-0.7-1.3c-3.7-6.8-7.7-13.4-12.1-19.7l-0.8-1.2l-0.8-1.2l-1.7-2.4
	l-0.4-0.6l-0.4-0.6l-0.9-1.2l-1.7-2.3l-1.8-2.3l-0.9-1.2c-0.3-0.4-0.6-0.8-0.9-1.1l-1.8-2.3l-0.9-1.1l-0.9-1.1
	c-1.2-1.5-2.5-3-3.8-4.4l-1.9-2.2l-2-2.2c-2.6-2.9-5.3-5.7-8.1-8.5c-1.4-1.4-2.8-2.8-4.2-4.2c-1.4-1.3-2.8-2.7-4.3-4
	c-2.8-2.7-5.8-5.3-8.7-7.9c-9.1-8-19.5-16.3-31.1-24.7c-0.7-0.5-1.4-1.1-2.2-1.6c-0.7-0.5-1.5-1.1-2.2-1.6c-1.5-1.1-3-2.1-4.5-3.2
	c-0.4-0.3-0.8-0.5-1.1-0.8c-0.4-0.3-0.8-0.5-1.1-0.8c-0.8-0.5-1.5-1.1-2.3-1.6c-1.5-1.1-3.1-2.1-4.7-3.2c-1.6-1.1-3.2-2.1-4.8-3.2
	c-0.8-0.5-1.6-1.1-2.4-1.6c-0.4-0.3-0.8-0.5-1.2-0.8c-0.4-0.3-0.8-0.5-1.2-0.8c-1.6-1.1-3.3-2.1-4.9-3.2c-0.8-0.5-1.6-1.1-2.5-1.6
	c-0.8-0.5-1.7-1.1-2.5-1.6c-13.4-8.6-27.4-17.3-41.5-26.4c-14.2-9.1-28.5-18.4-43.4-26.8c-7.4-4.2-15-8.2-22.8-11.8
	c-7.7-3.6-15.6-6.8-23.6-9.4c-4-1.3-8-2.5-12-3.5c-1-0.2-2-0.5-3-0.7c-0.5-0.1-1-0.2-1.5-0.4c-0.5-0.1-1-0.2-1.5-0.3
	c-1-0.2-2-0.4-3-0.6c-0.5-0.1-1-0.2-1.5-0.3c-0.5-0.1-1-0.2-1.5-0.3c-8-1.4-16.1-2.2-23.9-2.6c-7.9-0.3-15.6-0.2-23,0.3
	s-14.7,1.3-21.6,2.4c-13.9,2.1-26.5,5.1-37.7,8.1c-15,4.1-27,8.1-36.6,11.4c-9.6,3.3-16.8,6-22.1,8c-5.3,2-8.8,3.3-10.8,4.1
	c-2,0.8-2.7,1.1-2.3,1c0.7-0.1,5.1-1.7,9.8-3.3c4.6-1.6,9.5-3.3,10.9-3.8c18-6.3,35.2-12,53.4-16.7c1.1-0.3,2.3-0.6,3.4-0.9
	c1.1-0.3,2.3-0.6,3.4-0.8c0.6-0.1,1.2-0.3,1.7-0.4c0.6-0.1,1.2-0.3,1.7-0.4c1.2-0.3,2.3-0.5,3.5-0.8c1.2-0.3,2.4-0.5,3.6-0.8
	c1.2-0.2,2.4-0.5,3.6-0.8c1.2-0.2,2.4-0.5,3.6-0.7c1.2-0.2,2.4-0.5,3.7-0.7c1.2-0.2,2.5-0.4,3.7-0.6c0.3,0,0.6-0.1,0.9-0.2
	s0.6-0.1,0.9-0.1c0.6-0.1,1.3-0.2,1.9-0.3c0.6-0.1,1.3-0.2,1.9-0.3c0.6-0.1,1.3-0.2,1.9-0.3c1.3-0.2,2.6-0.3,3.9-0.5
	c0.6-0.1,1.3-0.2,1.9-0.2c0.6-0.1,1.3-0.1,2-0.2c1.3-0.1,2.6-0.3,4-0.4c1.3-0.1,2.7-0.2,4-0.3c0.7,0,1.4-0.1,2-0.1
	c0.7,0,1.4-0.1,2.1-0.1c1.4-0.1,2.8-0.1,4.1-0.2c1.4,0,2.8-0.1,4.2-0.1c1.4,0,2.8,0,4.3,0c0.7,0,1.4,0,2.2,0c0.4,0,0.7,0,1.1,0
	c0.4,0,0.7,0,1.1,0c1.5,0,2.9,0.1,4.4,0.1l0.6,0l0.6,0c0.4,0,0.8,0,1.1,0.1c0.8,0,1.5,0.1,2.2,0.1s1.5,0.1,2.3,0.1
	c0.8,0.1,1.5,0.1,2.3,0.2c0.8,0.1,1.5,0.1,2.3,0.2c0.4,0,0.8,0.1,1.2,0.1c0.4,0,0.8,0.1,1.2,0.1c1.5,0.2,3.1,0.4,4.7,0.6
	c1.6,0.2,3.1,0.5,4.7,0.8c1.6,0.2,3.2,0.6,4.8,0.9c0.8,0.2,1.6,0.3,2.4,0.5c0.4,0.1,0.8,0.2,1.2,0.3c0.4,0.1,0.8,0.2,1.2,0.3
	c3.2,0.8,6.5,1.6,9.8,2.6c3.3,1,6.6,2.1,10,3.3c6.7,2.4,13.6,5.3,20.5,8.7c7,3.3,14.1,7.1,21.3,11.2c7.2,4.2,14.6,8.7,22.3,13.5
	c7.6,4.8,15.5,9.9,23.7,15.1c-5.6-3.6-10.2-6.6-14-8.9c-3.8-2.4-6.6-4.2-8.7-5.6c-4.2-2.6-5.1-3.2-3.4-2.2c1.7,1,6,3.7,12.2,7.7
	c3.1,2,6.7,4.3,10.7,6.9c4,2.6,8.5,5.4,13.3,8.4c9.6,6.1,20.6,12.9,32.2,20.5c11.6,7.5,23.8,15.8,35.8,24.6
	c12,8.8,23.6,18.2,34.3,28c1.3,1.2,2.6,2.5,3.9,3.7c0.7,0.6,1.3,1.2,1.9,1.8c0.3,0.3,0.7,0.6,1,0.9l0.5,0.5l0.5,0.5
	c1.2,1.2,2.5,2.5,3.7,3.7c0.6,0.6,1.2,1.2,1.8,1.8c0.3,0.3,0.6,0.6,0.9,0.9s0.6,0.6,0.9,0.9c4.7,4.9,9,9.9,13,14.7
	c1.4,1.8,2.8,3.5,4.2,5.4c0.3,0.4,0.7,0.9,1,1.4c0.3,0.5,0.7,0.9,1,1.4c0.7,0.9,1.4,1.9,2,2.8c0.7,0.9,1.3,1.9,2,2.8
	c0.3,0.5,0.7,1,1,1.4l0.5,0.7l0.5,0.7c0.7,1,1.3,1.9,2,2.9c0.3,0.5,0.7,1,1,1.5c0.3,0.5,0.6,1,1,1.5c1.3,2,2.5,4.1,3.8,6.1
	c0.6,1,1.2,2.1,1.8,3.1c0.3,0.5,0.6,1.1,0.9,1.6c0.3,0.5,0.6,1.1,0.9,1.6c2.4,4.2,4.6,8.6,6.7,13.1c4.2,9,7.9,18.4,10.7,28.3
	c0.3,1.2,0.7,2.5,1,3.7c0.3,1.2,0.6,2.5,0.9,3.8l0.2,1l0.2,1c0.1,0.6,0.3,1.3,0.4,1.9s0.3,1.3,0.4,1.9s0.2,1.3,0.4,1.9
	c0.1,0.6,0.2,1.3,0.4,1.9c0.1,0.6,0.2,1.3,0.3,1.9c0.2,1.3,0.4,2.6,0.6,3.9l0.1,0.5l0.1,0.5l0.1,1c0.1,0.6,0.2,1.3,0.2,2l0.1,1
	l0.1,0.5l0,0.5c0.1,0.7,0.1,1.3,0.2,2c0.1,1.3,0.2,2.6,0.3,4c0,0.7,0.1,1.3,0.1,2l0,1c0,0.3,0,0.7,0,1c0,1.3,0.1,2.7,0.1,4
	c0,0.7,0,1.3,0,2c0,0.7,0,1.3,0,2l0,1c0,0.3,0,0.7,0,1c0,0.7-0.1,1.3-0.1,2c-0.1,1.3-0.1,2.7-0.2,4c-0.2,2.7-0.5,5.4-1.1,8
	c-0.5,2.6-1.3,5.2-2.5,7.6l-0.2,0.5c-0.1,0.1-0.2,0.3-0.2,0.5c-0.2,0.3-0.3,0.6-0.5,0.9l-0.5,0.9c-0.2,0.3-0.4,0.6-0.5,0.9
	c-0.8,1.1-1.6,2.2-2.5,3.2c-1.8,2-3.8,3.9-6,5.5c-1.1,0.8-2.2,1.6-3.3,2.4c-1.1,0.8-2.3,1.5-3.5,2.2c-9.4,5.9-19.8,10.3-30.6,13.6
	c-5.4,1.7-10.9,3.1-16.5,4.3s-11.2,2.2-16.9,3c-11.4,1.6-22.9,2.5-34.5,2.7c-11.6,0.2-23.3-0.3-34.9-1.3c-23.3-2-46.4-6.2-69.1-11.8
	c-22.7-5.5-45.1-12.2-67-19.2c-11-3.5-21.9-7.1-32.7-10.6c-5.4-1.8-10.8-3.5-16.2-5.2c-2.7-0.9-5.4-1.7-8-2.6
	c-2.7-0.9-5.3-1.7-8-2.6c-5.3-1.7-10.6-3.6-15.9-5.7s-10.5-4.5-15.5-7.3s-9.8-6.1-14.3-9.9c-0.3-0.2-0.6-0.5-0.8-0.7l-0.8-0.8
	c-0.5-0.5-1.1-1-1.6-1.5c-0.5-0.5-1.1-1-1.6-1.6l-0.8-0.8c-0.1-0.1-0.3-0.3-0.4-0.4l-0.4-0.4c-1-1.1-2-2.1-3-3.3
	c-0.5-0.6-1-1.1-1.5-1.7c-0.5-0.6-0.9-1.2-1.4-1.8l-0.7-0.9c-0.2-0.3-0.4-0.6-0.7-0.9c-0.4-0.6-0.9-1.2-1.3-1.8
	c-0.2-0.3-0.4-0.6-0.7-0.9l-0.6-0.9l-0.6-0.9c-0.2-0.3-0.4-0.6-0.6-1c-0.4-0.6-0.8-1.3-1.2-1.9c-0.2-0.3-0.4-0.6-0.6-1l-0.6-1
	c-0.4-0.6-0.8-1.3-1.2-2c-0.4-0.7-0.8-1.3-1.1-2c-0.8-1.3-1.5-2.7-2.2-4.1l-0.3-0.5l-0.3-0.5l-0.5-1c-0.4-0.7-0.7-1.4-1-2.1
	c-0.3-0.7-0.7-1.4-1-2.1c-0.2-0.4-0.3-0.7-0.5-1.1l-0.5-1.1c-0.3-0.7-0.6-1.4-1-2.1c-0.3-0.7-0.6-1.5-0.9-2.2
	c-2.4-5.8-4.6-11.9-6.4-18.1c-0.9-3.1-1.8-6.2-2.6-9.4c-0.4-1.6-0.8-3.2-1.1-4.8c-0.2-0.8-0.3-1.6-0.5-2.4s-0.3-1.6-0.5-2.4
	c-0.2-1.1-0.4-2.1-0.6-3.2l-0.5-3.2l-0.4-3.2c-0.1-1.1-0.3-2.1-0.4-3.2c-0.5-4.3-0.8-8.6-1-12.9c-0.4-8.6,0-17.2,0.9-25.7
	c1-8.5,2.6-16.9,5-25.1c1.2-4.1,2.5-8.1,4.1-12.1c1.6-4,3.3-7.8,5.2-11.6c1.9-3.8,4-7.5,6.2-11.1c2.2-3.6,4.6-7.1,7.2-10.4
	c5.1-6.7,10.9-13,17.2-18.6c6.3-5.6,13.2-10.5,20.6-14.6c3.7-2,7.5-3.8,11.4-5.4c0.5-0.2,1-0.4,1.5-0.6l1.5-0.5c1-0.4,2-0.8,3-1.1
	c1-0.3,2-0.7,3-1l3-0.9c4.1-1.1,8.1-2,12.3-2.8c4.1-0.7,8.3-1.2,12.5-1.6l3.1-0.2l3.1-0.2l0.8,0l0.8,0l1.6,0l1.6,0h1.6h1.6h0.8
	l0.8,0l3.1,0.1c2.1,0.1,4.2,0.2,6.3,0.3c8.4,0.5,16.8,1.5,25,3c8.3,1.5,16.5,3.4,24.6,5.7c16.2,4.6,31.9,10.7,47.2,17.9
	c15.3,7.2,30,15.3,44.4,24.2c14.4,8.9,28.4,18.4,42.1,28.4c6.9,5,13.7,10.1,20.4,15.3c6.7,5.2,13.3,10.6,19.8,16.1
	c13,11.1,25.5,22.8,37.3,35.3c3,3.1,5.8,6.3,8.5,9.6c2.7,3.3,5.3,6.8,7.5,10.4s4.2,7.5,5.7,11.5l0.5,1.5l0.5,1.5l0.2,0.8
	c0.1,0.3,0.2,0.5,0.2,0.8l0.4,1.6c0.3,1,0.5,2.1,0.7,3.1c0.1,0.5,0.2,1.1,0.2,1.6l0.1,0.8l0.1,0.8c0.5,4.3,0.4,8.6,0.1,12.9
	c-0.2,2.1-0.4,4.3-0.7,6.5c-0.3,2.1-0.6,4.3-1,6.4c-1.5,8.6-3,17.2-5,25.7c-2,8.5-4.3,17-7.5,25.2c-1.6,4.1-3.3,8.1-5.3,12
	c-2,3.9-4.3,7.7-6.8,11.2c-5.1,7.1-11.5,13.4-18.9,18.1c-3.7,2.4-7.7,4.3-11.8,6c-4.1,1.6-8.4,2.8-12.8,3.8
	c-8.7,1.9-17.7,2.5-26.7,2.4c-9-0.1-18-0.9-27.1-1.9c-19.2-2.2-37.7-4.8-55.7-7.8c-18-3-35.4-6.5-52.3-10.5
	c-8.4-2-16.7-4.2-24.9-6.6c-1-0.3-2-0.6-3-0.9c-1-0.3-2-0.6-3-0.9c-2-0.6-4-1.2-6-1.9c-4-1.3-8-2.6-11.9-4c-1-0.3-2-0.7-3-1
	s-2-0.7-2.9-1.1c-1-0.4-2-0.7-2.9-1.1c-1-0.4-2-0.7-2.9-1.1c-1.9-0.8-3.9-1.5-5.8-2.2c-1-0.4-1.9-0.8-2.9-1.1
	c-1-0.4-1.9-0.8-2.9-1.2c-1-0.4-1.9-0.8-2.9-1.2s-1.9-0.8-2.8-1.2c-1-0.4-1.9-0.8-2.8-1.2c-0.5-0.2-1-0.4-1.4-0.6l-1.4-0.6
	c-1.9-0.9-3.7-1.7-5.6-2.5c-1.8-0.9-3.7-1.8-5.5-2.6c-0.7-0.3-1.3-0.6-2-1s-1.3-0.7-2-1c-1.3-0.7-2.7-1.3-4-2c-0.7-0.3-1.3-0.7-2-1
	c-0.7-0.4-1.3-0.7-2-1.1c-1.3-0.7-2.6-1.4-4-2.1c-1.3-0.7-2.6-1.5-3.9-2.2l-2-1.1c-0.3-0.2-0.7-0.4-1-0.6l-1-0.6l-3.9-2.3l-1.9-1.2
	l-1.9-1.2c-1.3-0.8-2.6-1.6-3.8-2.4l-1-0.6l-0.9-0.6c-0.6-0.4-1.3-0.8-1.9-1.2c-1.3-0.8-2.5-1.6-3.8-2.5c-1.2-0.9-2.5-1.7-3.7-2.5
	c-4.9-3.4-9.6-7-14.1-10.7c-4.5-3.7-8.9-7.5-12.9-11.5c-4-4-7.8-8.1-11.1-12.4c-0.4-0.5-0.8-1.1-1.3-1.6c-0.2-0.3-0.4-0.5-0.6-0.8
	c-0.2-0.3-0.4-0.6-0.6-0.8c-0.8-1.1-1.6-2.2-2.4-3.2c-0.8-1.1-1.5-2.2-2.2-3.3c-0.2-0.3-0.4-0.6-0.5-0.8c-0.2-0.3-0.3-0.6-0.5-0.8
	c-0.3-0.6-0.7-1.1-1-1.7c-0.3-0.6-0.7-1.1-1-1.6c-0.2-0.3-0.3-0.6-0.5-0.8c-0.1-0.3-0.3-0.6-0.4-0.8c-0.3-0.6-0.6-1.1-0.9-1.7
	c-0.1-0.3-0.3-0.6-0.4-0.8s-0.3-0.6-0.4-0.8c-0.3-0.6-0.6-1.1-0.8-1.7c-0.1-0.3-0.3-0.6-0.4-0.8c-0.1-0.3-0.3-0.6-0.4-0.8
	c-0.3-0.6-0.5-1.1-0.8-1.7c-0.2-0.6-0.5-1.1-0.7-1.7c-3-6.9-5.2-14.1-6.8-21.2c-0.8-3.6-1.4-7.1-1.9-10.7s-0.9-7.1-1.1-10.6
	c-0.5-7.1-0.4-14.1,0.1-20.9c0.5-6.9,1.5-13.6,2.9-20.1c0.2-0.8,0.4-1.6,0.5-2.4l0.1-0.6l0.1-0.6l0.3-1.2c0.2-0.8,0.4-1.6,0.6-2.4
	c0.2-0.8,0.4-1.6,0.6-2.4c0.5-1.6,0.9-3.2,1.4-4.8c0.5-1.6,1-3.1,1.5-4.7c2.1-6.2,4.6-12.2,7.3-18c0.7-1.4,1.4-2.9,2.1-4.3l0.3-0.5
	l0.3-0.5l0.6-1.1c0.4-0.7,0.8-1.4,1.1-2.1l0.6-1.1l0.3-0.5l0.3-0.5c0.4-0.7,0.8-1.4,1.2-2.1c0.4-0.7,0.8-1.4,1.2-2.1l0.3-0.5
	l0.3-0.5l0.6-1c0.4-0.7,0.8-1.3,1.2-2l0.6-1l0.3-0.5l0.3-0.5c0.9-1.3,1.7-2.6,2.6-3.9l0.3-0.5c0.1-0.2,0.2-0.3,0.3-0.5l0.7-1
	c0.4-0.6,0.9-1.3,1.4-1.9l0.7-1c0.2-0.3,0.4-0.6,0.7-0.9c0.5-0.6,0.9-1.2,1.4-1.9c-0.5,0.7-1.1,1.4-1.6,2.1c-0.5,0.7-1,1.4-1.5,2.1
	c-0.5,0.7-1,1.4-1.5,2.1c-0.2,0.3-0.5,0.7-0.7,1.1c-0.2,0.3-0.5,0.7-0.7,1.1c-0.5,0.7-0.9,1.4-1.4,2.1c-0.2,0.3-0.5,0.7-0.7,1.1
	l-0.4,0.5l-0.3,0.5c-0.9,1.4-1.7,2.8-2.6,4.2c-3.4,5.7-6.3,11.3-9,17.1c-0.6,1.4-1.3,2.9-1.9,4.3c-0.6,1.5-1.2,2.9-1.8,4.3l-0.4,1.1
	c-0.1,0.4-0.3,0.7-0.4,1.1c-0.3,0.7-0.5,1.5-0.8,2.2s-0.5,1.5-0.8,2.2c-0.3,0.7-0.5,1.5-0.7,2.2l-0.7,2.2c-0.2,0.7-0.5,1.5-0.7,2.2
	c-0.4,1.5-0.9,3-1.3,4.5l-0.2,0.6l-0.1,0.6l-0.3,1.1c-0.2,0.8-0.4,1.5-0.6,2.2l-0.3,1.1l-0.1,0.6c-0.1,0.2-0.1,0.4-0.1,0.6
	c-0.2,0.8-0.3,1.5-0.5,2.3c-0.3,1.5-0.7,3.1-0.9,4.6c-0.1,0.8-0.3,1.5-0.4,2.3l-0.2,1.2c-0.1,0.4-0.1,0.8-0.2,1.2
	c-0.2,1.6-0.4,3.1-0.6,4.7c-0.1,0.8-0.2,1.6-0.3,2.4c-0.1,0.8-0.1,1.6-0.2,2.4c0,0.4-0.1,0.8-0.1,1.2s-0.1,0.8-0.1,1.2
	c0,0.8-0.1,1.6-0.1,2.4c-0.1,1.6-0.2,3.2-0.2,4.9c0,0.8,0,1.6,0,2.5c0,0.4,0,0.8,0,1.2l0,0.6l0,0.6c0.1,1.7,0.1,3.3,0.1,5
	c0.2,3.4,0.4,6.8,0.8,10.2c0.4,3.4,0.9,6.9,1.6,10.4c1.4,7,3.3,14.2,6.1,21.5c0.5,1.2,0.9,2.3,1.3,3.3c0.4,1,0.8,1.9,1.2,2.7
	c0.4,0.8,0.7,1.5,1,2.1s0.6,1.1,0.8,1.6c0.4,0.9,0.8,1.4,0.9,1.7c0.1,0.3,0.1,0.3,0,0c-0.1-0.3-0.4-0.8-0.8-1.5
	c-0.2-0.4-0.4-0.8-0.6-1.3c-0.1-0.2-0.2-0.5-0.4-0.8s-0.2-0.6-0.4-0.8c-0.3-0.6-0.6-1.2-0.9-1.9c-0.3-0.7-0.6-1.4-0.9-2.2
	c-0.1-0.2-0.2-0.4-0.2-0.6c-0.1-0.2-0.2-0.4-0.2-0.6c-0.2-0.4-0.3-0.8-0.5-1.2c-0.4-0.9-0.7-1.7-1-2.7c-1.4-3.7-2.7-8-3.9-12.6
	c-1.1-4.6-2.1-9.5-2.8-14.3c-0.7-4.9-1-9.7-1.2-14.1c0-1.1-0.1-2.2-0.1-3.3c0-0.3,0-0.5,0-0.8c0-0.1,0-0.3,0-0.4c0-0.1,0-0.3,0-0.4
	c0-0.5,0-1,0-1.5c0-1,0-2,0-2.9c0-0.5,0-0.9,0-1.4s0.1-0.9,0.1-1.3c0.2-5.9,1-13.4,2.4-20.8l0.2-1.4c0.1-0.5,0.2-0.9,0.3-1.4
	c0.2-0.9,0.4-1.8,0.6-2.8c0.1-0.5,0.2-0.9,0.3-1.4s0.2-0.9,0.3-1.3c0.2-0.9,0.4-1.8,0.7-2.6c0.1-0.4,0.2-0.9,0.3-1.3
	c0.1-0.4,0.2-0.9,0.3-1.3c0.2-0.8,0.5-1.6,0.7-2.4c0.2-0.8,0.5-1.6,0.7-2.3c0.1-0.4,0.2-0.8,0.4-1.1c0.1-0.4,0.2-0.7,0.4-1.1
	c0.2-0.8,0.5-1.5,0.8-2.3c0.1-0.4,0.2-0.8,0.4-1.1l0.2-0.6l0.2-0.6c0.6-1.5,1.1-3,1.6-4.4l0.2-0.6l0.2-0.6l0.4-1.1
	c0.3-0.7,0.6-1.4,0.9-2.2l0.4-1.1l0.2-0.6l0.2-0.5c0.3-0.7,0.6-1.4,1-2.1c0.6-1.4,1.3-2.8,1.9-4.2c0.7-1.4,1.4-2.8,2.1-4.2
	c0.7-1.4,1.5-2.8,2.2-4.1c0.2-0.3,0.4-0.7,0.6-1l0.6-1c0.4-0.7,0.8-1.4,1.2-2s0.8-1.4,1.2-2c0.4-0.7,0.8-1.3,1.2-2
	c0.4-0.7,0.8-1.3,1.2-2c0.2-0.3,0.4-0.7,0.6-1c0.2-0.3,0.4-0.7,0.6-1c0.9-1.3,1.7-2.7,2.6-4c0.9-1.3,1.8-2.6,2.8-3.9
	c3.8-5.2,7.9-10.4,12.5-15.6c2-2.2,3.4-3.8,4.5-4.9c1.1-1.2,1.9-2,2.6-2.6c0.3-0.3,0.6-0.6,0.9-0.9c0.3-0.3,0.6-0.6,0.9-0.9
	c0.6-0.6,1.4-1.3,2.4-2.3c0.4-0.4,0.9-0.8,1.3-1.2c0.4-0.4,0.9-0.8,1.3-1.2s0.9-0.8,1.3-1.2c0.4-0.4,0.8-0.8,1.3-1.2
	c0.9-0.8,1.7-1.5,2.6-2.2c0.4-0.4,0.9-0.7,1.3-1.1c0.2-0.2,0.4-0.4,0.6-0.5c0.2-0.2,0.4-0.3,0.6-0.5c0.9-0.7,1.7-1.4,2.6-2.1
	c0.4-0.3,0.8-0.7,1.3-1s0.9-0.7,1.3-1c0.9-0.7,1.7-1.3,2.5-1.9c0.2-0.2,0.4-0.3,0.6-0.5c0.2-0.2,0.4-0.3,0.6-0.5
	c0.4-0.3,0.9-0.6,1.3-0.9c6.8-4.9,13.5-9,20-12.6c13.1-7.1,25.6-11.8,37.2-14.4c0.5-0.1,1.1-0.2,1.7-0.4c0.5-0.1,1.1-0.2,1.7-0.3
	c1.1-0.2,2.2-0.4,3.3-0.6c0.3-0.1,0.5-0.1,0.8-0.2c0.3,0,0.5-0.1,0.8-0.1c0.5-0.1,1.1-0.2,1.6-0.2c1.1-0.2,2.2-0.3,3.2-0.4
	c1.1-0.1,2.1-0.2,3.2-0.3l0.4,0l0.4,0c0.3,0,0.5,0,0.8,0c0.5,0,1.1-0.1,1.6-0.1s1.1-0.1,1.6-0.1c0.3,0,0.5,0,0.8,0l0.8,0
	c1.1,0,2.1,0,3.1,0c8.4,0.1,16.4,1.1,24.2,2.8l0.9,0.2l0.9,0.2l1.8,0.4c1.2,0.3,2.5,0.6,3.7,0.9c1.2,0.3,2.4,0.7,3.7,1
	c0.6,0.2,1.2,0.4,1.8,0.5l0.9,0.3l0.9,0.3c4.9,1.5,9.8,3.3,14.7,5.2c3.1,1.2,6.2,2.5,9.3,3.9c3.1,1.4,6.3,2.8,9.4,4.2
	c-4.9-2.3-6.7-3.2-8.4-4c4.5,2,10,4.5,15.3,7.1c5.4,2.6,10.7,5.3,15.1,7.6c-4.4-2.3-9.7-5-15.1-7.6s-10.8-5.1-15.3-7.1
	c1.6,0.8,3.4,1.6,8.4,4c5.6,2.6,11.2,5.4,16.9,8.3c2.9,1.4,5.7,2.9,8.6,4.4s5.8,3,8.7,4.5c5.8,3,11.6,6.2,17.4,9.5s11.5,7,17,10.9
	s10.8,8.1,15.8,12.8l0.5,0.4l0.5,0.4l0.9,0.9l1.8,1.8c0.3,0.3,0.6,0.6,0.9,0.9l0.9,0.9l0.9,0.9c0.3,0.3,0.6,0.6,0.9,0.9
	c2.3,2.5,4.5,5.1,6.6,7.7c4.2,5.3,8.1,10.9,11.7,16.5c3.6,5.7,7,11.4,10.3,17.2c-0.1-0.2-0.2-0.4-0.3-0.6c-3.8-6.8-7.8-13.4-12-19.8
	c-0.5-0.8-1.1-1.6-1.6-2.4l-0.8-1.2c-0.3-0.4-0.5-0.8-0.8-1.2c-1.1-1.6-2.2-3.1-3.4-4.7c-2.3-3.1-4.7-6.1-7.2-9
	c-1.3-1.4-2.5-2.9-3.9-4.3l-1-1.1c-0.3-0.3-0.7-0.7-1-1.1c-0.7-0.7-1.4-1.4-2.1-2l-1-1l-1.1-1c-0.7-0.7-1.4-1.3-2.1-2
	c-0.4-0.3-0.7-0.6-1.1-1l-1.1-0.9l-1.1-0.9l-0.6-0.5c-0.2-0.2-0.4-0.3-0.6-0.5c-6.1-4.9-12.6-9.5-19.4-13.8c0.4,0.2,0.7,0.5,1.1,0.7
	c0.3,0.2,0.7,0.4,1,0.6c0.6,0.4,1.2,0.8,1.7,1.1c0.3,0.2,0.5,0.3,0.8,0.5c0.2,0.2,0.5,0.3,0.7,0.5c0.4,0.3,0.8,0.5,1.1,0.8
	c1.3,0.9,1.8,1.2,1.5,1c-0.3-0.2-1.3-0.9-3.1-2.1c-0.9-0.6-2-1.3-3.3-2.1c-0.3-0.2-0.7-0.4-1-0.6c-0.4-0.2-0.7-0.4-1.1-0.7
	c-0.8-0.5-1.5-1-2.4-1.5c-0.9-0.5-1.7-1-2.6-1.6c-0.9-0.5-1.7-1-2.6-1.5c-1.8-1-3.5-2-5.3-3c6,3.3,12,6.8,17.8,10.5
	c5.8,3.7,11.3,7.8,16.5,12.1c5.2,4.4,10.1,9.1,14.5,14.1c4.4,5,8.5,10.3,12.1,15.7c0,0,0.4,0.6,1.1,1.6c0.3,0.5,0.7,1.1,1.2,1.7
	c0.4,0.7,0.9,1.4,1.4,2.2c0.2,0.4,0.5,0.8,0.8,1.2c0.3,0.4,0.5,0.8,0.8,1.2c0.5,0.8,1,1.7,1.6,2.5c1,1.6,2,3.2,2.7,4.5
	c2.2,3.8,3.2,5.6,3.8,6.7c0.6,1.1,0.8,1.4,1.2,2.2c3,5.2,5.9,10.6,8.9,16c-1.5-2.8-3.9-7.2-6.6-12.1c-2.7-4.9-5.8-10.4-8.9-15.4
	c-0.4-0.6-0.8-1.3-1.1-1.9c-0.4-0.6-0.8-1.2-1.1-1.8s-0.8-1.2-1.1-1.8c-0.4-0.6-0.7-1.1-1.1-1.7c-0.4-0.6-0.7-1.1-1-1.6
	c-0.3-0.5-0.7-1-1-1.5c-0.7-1-1.3-1.9-1.8-2.7c-0.6-0.8-1.1-1.6-1.6-2.2c-0.2-0.3-0.5-0.6-0.6-0.9c-0.2-0.3-0.4-0.5-0.6-0.8
	C467,95.5,466.6,95,466.6,95z"/>
</svg>
