<?xml version="1.0" encoding="utf-8"?>
<!-- Generator: Adobe Illustrator 24.2.1, SVG Export Plug-In . SVG Version: 6.00 Build 0)  -->
<svg version="1.1" id="Layer_1" xmlns="http://www.w3.org/2000/svg" xmlns:xlink="http://www.w3.org/1999/xlink" x="0px" y="0px"
	 viewBox="0 0 410.6 259.9" style="enable-background:new 0 0 410.6 259.9;" xml:space="preserve">
<style type="text/css">
	.st0{fill:#026CB6;}
	.st1{fill:#B2BB1E;}
</style>
<g>
	<path class="st0" d="M403.3,136.5c-0.6-0.2-11.8-3-13.6-3.6c-0.6-0.2-0.7-0.9-0.2-0.9c2.2-0.3,9.5,0.5,11.4-1.5
		c1.1-1.1-10.3-2-14-2.2c-3.6-0.2-6.5-0.8-9.4-1.3c-15.3-2.9-37-10.4-53-14.9c-6.7-1.9-13.4-3.8-20.2-5.8c-1.4-0.4-2.7-0.8-4.1-1.2
		c-0.1,0-0.2,0-0.2-0.1c-0.7-0.2-1.4-0.4-2.1-0.6c-0.3-0.1-0.7-0.3-1-0.3c-1.2-0.1,0.7,1.1,0.9,1.3c0.9,0.7,1.8,1.4,2.5,2.2
		c1.6,1.6,2.9,3.5,3.9,5.5c1.4,2.8,1.9,6.7,4.9,8.2c2.9,1.5,5.8,0,8.7,0.9c1.2,0.4,1.6,1.6,2.8,2.1c0.5,0.2,2.7,1.9,1.1,1.6
		c-1.5-0.3-2-0.4-3.3,0.2c-2.3,0.9-4.4,1.8-6.6,2.7c-0.1,0-0.2,0.5-0.2,0.6c2.7,6.7,1.6,13.6-0.2,20.4c-0.6,2.1-0.5,5.9-3.2,3.5
		c-2.5-2.3-4.1-5.3-5-8.5c-0.9-3.2-2.5-9.9-3-10.9c-0.5-1-3.5-4.2-6.4-5.9c-1.3-0.8-2.7-1.6-4.2-2.1c-2.6-1-10.1-1.8-12.4-2.1
		c-6.6-1-11.2-1.9-16.5-2.8c-0.7-0.1-0.6-0.4,0-0.4c7.5,0,27.8,0.3,28.4,0.2c1-0.2,1.9-1.3,2.3-1.9c1-1.5,1.4-3.4,1.3-5.2
		c-0.2-3.4-2.2-6.6-4-9.4c-0.7-1.1-1.1-2-2.7-3c-0.4-0.3-1.1-0.5-1.8-0.8c-1.8-0.7-3.8-1.2-3.8-1.2s9-4.1,10.4-4.9
		c1.4-0.7,5.2-1.9,6-1.9c1.2-0.1,1.8-0.1,3.3,0.8c1.7,0.9,1.8,2.5,1.8,2.5s2.6-2.4,2-3.7c-2.1-4.3-6.5-6.3-6.5-6.3
		c-1.2-0.8-5.3-4.5-9-5.6c-3.7-1.1-11-3-19.2-1.1c-8.2,1.9-12.3,4.8-17.6,4.3c-5.2-0.5-14.8-3.2-19.9-5.7
		c-3.3-1.6-23.1-14.5-37.9-24.2c-0.1-0.1-0.2-0.1-0.3-0.2c-3.4-1.8-5.8-3.4-9.3-4.9c-2.3-1-4-1.7-6.8-0.9c-1.4,0.4-3,1.6-4.4,2.5
		c-0.4,0.4-1.6,0.8-1.8,1.5c-0.2,0.7,1.5,3.5,1.9,4.2c1.8,3.2,3.5,5.5,6.1,8.6c0.6,0.7,3.4,4.5,1.2,3.8c-3-1-7.3-5.1-9.8-7.2
		c-2.9-2.5-4.6-2.8-7.7-5c-0.9-0.6-1.9-1.1-2.7-0.5c-3.2,2.2-7,2.5-10.7,3.6c-2.9,0.9-4.9,4.9-7.8,6.4c-1.5,0.9-3.2,1.7-4.6,2.7
		c-2-0.5,0.6-8.2,1.5-9.8c0.9-1.7,1.8-5.2,3.9-5.7c1.9-0.5,11.1-3,12.7-3.9c0.3-0.2,0.3-0.7,0.3-0.9c-0.6-1.3-1.1-2.7-1.7-4
		c-0.6-1.5-1.3-3.3-2.3-4.5c-0.9-1.1-2.5-0.8-3.4-1.6c0.7-0.7,3.4-0.1,4.6-0.7c3.8-2,7.3,4.4,9.9,5.9c2.3,1.4,4.7-0.4,6.6-1.3
		c1.4-0.6,2.8-1.2,4.3-1.6c-9.1-6.3-29-20.2-34.3-23.7c-6.5-4.3-16.6-5.9-19.8-7.9c-3.2-2-11.3-6.6-12.3-5.9c-1.8,1.3,5,5.8,4.9,6
		c-0.6,0.9-2.1,0.6-3,0.1C107,7.6,91.7,1.7,90.1,1c-5.8-3-3.5,1.8-0.5,3.7c2.7,1.7,7.5,3.9,10.9,5.6c1.9,1,0.9,2.5-2.2,1.4
		c-10.7-4-14.9-5.2-18.4-6.5c-5.3-1.9-4.7,2.5,0.9,4.9c3,1.3,10.5,2.8,13.2,4.7c1.7,1.2,0.6,2.7-1.6,2c-1.7-0.5-15.7-2.6-20-3.2
		c-4.8-0.8-2.8,2.9,1.1,4.5c5,2,12.7,2,15.7,2.9c2.8,0.9,1.9,2.8-1.3,2.3c-2.5-0.4-10.7-0.4-16.1-0.8c-4.8-0.3-1.4,3.7,1.8,4.1
		c2.1,0.3,10.4,0.4,12.3,1.1c2.5,0.9,2.4,2.6-1.9,2.1c-4.4-0.5-9,0.3-10.5,0.9c-1.4,0.6-0.6,1.4,1.4,2.4c2.6,1.4,3.8,0.4,5.9,3.9
		C84,42,95.6,54.6,98.4,57.4c1.6,1.6,4.4,4.6,7.7,8.1c-0.9-3-1.3-5.8-1.4-8.3c-0.2-3.1,0.2-6.9,1.8-9.3c1.6-2.4,2-4.1,1.3-6.1
		c-0.5-3.2-1.5-4.3-3.8-5.9c-1.7-1.1-3.5-2-4.3-2.2c-0.7-0.2-1.2-0.3-1.6-0.3c-0.1,0.1,0.1-0.3-0.1-0.4c0.2-0.3,0.5-0.4,1.1-0.5
		l1.9,0.2c2.1,0.4,3.7,1.3,5.3,2.6c0.1,0.1,0.3,0.2,0.4,0.3c0.2,0.1,0.4,0.3,0.5,0.4c1.2,1,2.2,1.7,3.3,2.3c1.2,0.7,2.2,1.1,3.3,1.3
		c0.2,0,0.3,0.1,0.6,0.3c0.3,0.2,0.4,0.4,0.5,0.4c2,1.6,2.9,3.3,2.8,5.2c0.2,2.5,0.6,4.9,1.1,7.3c0.5,2.4,0.9,4.8,1.6,7.1
		c1.4,4.8,1.4,9.3,0.3,13.9c0,0,0,1.1,0,1.6c0,0.2,0.2,1.7,0.4,3.5c0.1,0.7,0.5,2.3,1.6,3.3c0,0,0,0,0,0c0,0,0,0,0,0
		c0.5,0.5,1,0.9,1.6,1.3c0.5,0.5,1.1,1,1.6,1.4c1.1,0.9,2.3,1.8,3.4,2.7c0.6,0.5,1.3,1,1.9,1.4c1,0.8,1.5,0.7,2.5-0.1
		c0.7-0.6,1.4-1.2,2.1-1.7c0.7-0.4,3.1-2,3.8-2.3c0.7-0.3,2.5-0.8,2.5-0.8c1.3-0.4,2.5-0.9,3.7-1.4c1-0.4,1.7-1.2,2.3-2.2
		c0.1-0.3,0.2-0.5,0.2-0.6l0.5-0.5l0.3-0.2l0.1-0.1l1.4-0.8c0.6-0.3,1.5-0.6,2.8-0.6l0.2,0L154,78c0.4,0.1,0.8,0.3,1.2,0.5
		c0.4,0.2,0.8,0.4,1.1,0.6c0.5,0.2,0.8,0.3,1.2,0.5c0.4,0.1,0.8,0.2,1.2,0.1l0.2,0l0.1,0.1l0.1,0.1l0.1,0l0.2,0c0.1,0,0.2,0,0.3,0.2
		c0.2,0.1,0.3,0.1,0.3,0l1.3,0.7c0.1,0.2,0.1,0.2,0.1,0.2l-0.1,0l-4.1,0.4l-1.8,1.4l0,0.1c-0.1,0.1-0.3,0.2-0.3,0.3l-0.8,0.9
		l-0.4,1.1l-0.2,0.7l-0.3,2.2c0,0-0.6,2.1-0.9,2.8c-0.2,0.3-0.4,0.7-0.7,1.2c-0.4,0.4-0.6,0.8-0.9,1.1l-1.9,1.8c0,0-0.9,0.7-2.7,1.7
		c-0.4,0.2-0.9,0.4-1.4,0.7c-0.6,0.3-1.7,0.5-0.9,1.2c0.6,0.5,1.3,0.9,2,1.4c4.7,3.1,7.5,4.9,11.5,7.2c0.2,0.1,0.9,0.5,1.8,0.8
		c1.1,0.4,2.6,0.6,3.9-0.2c1.8-1.2,3.6-2.3,5.4-3.5c2.6-1.7,10.7-6.4,11.7-7.5c0.9-1.1,2-2,3.1-2.9c4.7-3.8,10-7.1,15.7-9.2
		c2.6-0.9,5.4-1.2,8.1-1.2c2.5,0.1,3.4-1.4,4.5-3.3c0.8-1.3,1.7-2.2,0.6-3.7c-0.7-0.9-1.3-1.7-1.9-2.6c3.8,0.2,3.4,3.7,6,4.6
		c1.2,0.6,2,1.8,2.8,2.8c1.7,2,0.1,4.8-1.2,6.6c-1.9,2.4-4.2,4.5-6.9,5.9c-1.3,0.6-2.6,1.1-4,1.4c-1.2,0.3-2.9,0.8-4.2,1.1
		c-2.2,0.5-4.9,0.5-7,0.5c-1.3,0.1-2.6,0.1-3.9,0c-5.4-0.2-14.2,6.8-15.5,8.3c-1.4,1.7-1.6,1.9-3.3,4c-0.4,0.5-2.5,4.3-1.2,5.4
		c0,0,0.1,0.1,0.2,0.1c0.8,0.7,4.2,2,4.9,2.4c2.4,1.2,0.7,2.3-0.4,2.7c-17.1,5.1-35.2,6.6-38,7.7c-1.5,0.6-0.5,3,3.2,8.1
		c0.5,0.7,1.2,1.9,1.8,2.6c0,0,0,0,0.1,0c0.4,0.4,1.9,0.1,2.6,0.1c0.9-0.1,12.7-2.9,13-2.5c0.4,0.5-3.9,3.9-10,6.6
		c-1.8,0.8-0.2,3.1-0.1,3.2c4.1,5.4,12.1,12.9,22,18.6c0.2,0.2,0.5,0.3,0.7,0.4c1.2,0.5,2.6,0.6,3.5-0.2
		c7.7-6.7,13.2-14.7,13.5-15.2c1-2.4,1.4-4.8,0.2-7.9l-0.7-1.6c0,0-1.1-1.8-1.8-5.2c-0.9-3.5-0.6-7.5,0.1-9.7
		c0.4-1.2,0.9-2.2,1.6-3.2c0.7-1.1,1.6-2.1,2.5-3c0.4-0.4,1.6-1.6,2.6-2c1.2-0.6,2.3-0.8,3.6-0.5l1.4,0.5l1.5,0.6
		c0.7,0.2,1.2,0.6,1.5,0.8c0.5,0.5,0.8,0.7,1,0.9l0.7,0.2l1.8,0.5c0,0,2.2,1.1,2.5,1.3c0.5,0.5,0.6,0.6,0.7,0.8c0,0-0.2,0.4-0.3,0.3
		l-3.2-1c-1.2-0.3-1.9-0.2-2.3,0.2L201,122c-0.5,0.3-0.9,0.3-1.3,0.7c-0.9,0.8-1.1,1.8-0.5,3.2c0.8,1.9,1,3.7,0.9,5.1
		c-0.2,3.6-1.1,6.9-2.2,10.5c-0.8,2.1-1.5,3.7-2.3,5.1c-0.8,1.4-1.3,2.5-2.5,4.2c-0.2,0.3-0.3,0.5-0.6,0.9c-0.1,0.3-0.2,0.6-0.3,0.9
		c-1.1,5.9-0.4,9.3-1.6,15.2c-0.1,1.1,0.3,3.3,1.6,4c0.6,0.3,1.5,0.5,2.5-0.2c3.9-2.7,10-22.1,24.7-34c2.6-2.1,4.8-0.3,5.9,0.1
		c3.6,1.2,7.9,3,15.6,6c0.2,0.1,0.4,0.2,0.6,0.2c0.4,0,0.4-0.5,0.4-0.5c-0.7-0.9-1.7-2.3-2.4-3.4c-0.8-1.1-1.6-2.4-2.2-3.6
		c-1.5-2.5-2.7-4.6-3.2-7.2c-0.2-0.9-0.6-3.6-0.3-6c0,0,0.4-1.9,0.7-2.7c0.6-1.4,1.6-2.5,3.5-3.8c1.3-0.9,2.3-2.2,2.6-3.7l-0.1-0.2
		l0-0.3c0-0.6-0.4-1.2-1-1.6c-1.4-0.4-2.2-0.7-2.6-0.8c-0.4-0.1-0.7-0.2-1.1-0.4c-1.4-0.3-2.7-0.6-4-0.8c-0.1,0-0.1-0.1-0.1-0.2
		c0-0.1,0.2-0.3,0.5-0.4c1.9,0.1,3.6-0.3,5-1.1c1.5-0.9,3.1-1.2,5-1c2,0.8,3.2,1.9,3.7,3.4c0.7,1.5,1.2,3,1.4,4.6
		c0.1,0.4,0,0.7,0,0.9c0,0.1-0.1,0.4-0.2,0.7c-0.2,0.8-0.5,1.7-1.3,2.2c-0.8,0.8-1.6,1.4-2.2,2.1l0.1,0.5c1.1,2.2,2.6,3.7,4.2,5.6
		c2.5,2.8,5.2,7.9,6.4,10.9c0.5,1.2,2.4,7.2,2.4,7.2s1,4.8,1.7,5.4c0.2,0.1,0.8,0.4,1.7,0.7c6.4,2.4,29.1,9,39.6,10.1
		c5.9,0.6,9.2,0.8,13.7,1c0.1,0,0.1,0,0.2,0c1.7,0,3.8-0.8,4.7-1.2c1.9-0.8,3.5-1.8,5.2-3l1.5-0.9c1.6-1.3,3.3-2.4,5.1-3.3
		c1.8-1,3.6-2.3,5.2-4c0.5-1.1,1.1-2,1.8-2.6c0.7-0.7,1.1-1.1,1.8-1.9c0-0.6-1.1-1.2-1.1-1.2c0.6-0.3,1.1-0.4,1.5-0.4l1.6-0.4
		c1.1-0.2,2.2-0.2,3.2,0c0.4,0.1,1.6,0.3,1.9,0.4l1.7,0.7c0.6,0.3,1.1,0.6,1.5,0.9c1,2,2.6,3.5,4.9,4.6c2.3,1,4.2,2.3,5.8,3.9
		c-0.7,0-1.3,0-2-0.1c-0.8-0.1-1.4-0.3-2-0.5c-1.3-0.5-2.6-0.8-3.8-1.2l-2.5-0.8c-0.2-0.1-0.5-0.1-0.6-0.1c-0.8-0.1-1.5,0-2.3,0.3
		c-0.3,0.1-0.6,0.6-0.7,1.2l0.4,1.2c0.2,0.5,0.2,1,0,1.5c-0.4,1.2-0.8,2.3-1.4,3.2c-0.7,1-1.5,1.8-2.4,2.6c-0.5,0.4-0.9,0.8-1.3,1.2
		c-0.3,0.3-0.7,0.6-1,0.9c-0.5,0.4-0.5,0.7,0.1,0.8c0.3,0.1,0.7,0.1,1,0.1c0.5,0,1.1,0.1,1.6,0.1c1.1,0.1,2.2,0.1,3.3,0.1
		c1.1,0,2.2-0.2,3.3-0.2c2,0.1,2.4,0.1,4.8,0.9c2.4,0.8,10,3.2,11.5,3.8c1.5,0.6,3.3,1,3-0.5c-0.3-2-2.1-4.2-3-6
		c-0.4-0.7-1.4-3.5,0.9-3.3c1.8,0.1,0.4,1.2,11.9,6.3c2.4,1.1,4.6-0.5,3.4-1.9c-4.2-4.6-7.6-8.3-8.2-9.6c-0.4-1,0.4-1.6,1.8-0.8
		c3.7,2.1,8.9,5.2,14,7c2.1,0.7,5-0.2,2.7-2.3c-1.5-1.4-10.6-9-11.3-10.2c-1.1-2-0.8-2.6,2.1-0.9c4.2,2.5,10.6,4.4,14.4,4.8
		c2.4,0.3,5.8-0.8,1.3-3c-2.6-1.3-10.8-5.4-13-7.8c-0.9-1-0.3-1.9,1.1-1.8c4.2,0.4,10.3,1.7,14.8,1
		C404.6,138.4,405.3,137.2,403.3,136.5z"/>
	<g>
		<path class="st1" d="M52.2,234.3h-0.1l-5,11.8l0.1,0.2h10.1l0.1-0.2L52.2,234.3z M61.9,257.1l-2.6-6H45l-2.6,6l-4.8-1.9l13.1-30.6
			h2.9l13.1,30.6L61.9,257.1"/>
		<polygon class="st1" points="80.8,230 80.8,256.8 75.2,256.8 75.2,230 64.9,230 64.9,225.2 91.1,225.2 91.1,230 		"/>
		<rect x="97.1" y="225.2" class="st1" width="5.6" height="31.6"/>
		<path class="st1" d="M126.8,230.2c-6.5,0-11.8,4.9-11.8,10.8c0,5.9,5.3,10.7,11.8,10.7c6.6,0,11.8-4.8,11.8-10.7
			C138.7,235.1,133.4,230.2,126.8,230.2 M126.8,256.9c-9.6,0-17.5-7.1-17.5-15.9c0-8.8,8-15.9,17.5-15.9c9.6,0,17.6,7.1,17.6,15.9
			C144.4,249.8,136.5,256.9,126.8,256.9"/>
		<polygon class="st1" points="176.1,256.8 155.8,234.9 155.7,235 155.7,256.8 150,256.8 150,224.7 153.4,224.7 173.8,246.6 
			173.9,246.5 173.9,225.2 179.6,225.2 179.6,256.8 		"/>
		<path class="st1" d="M198.8,234.3h-0.1l-5,11.8l0.1,0.2h10.1l0.1-0.2L198.8,234.3z M208.5,257.1l-2.6-6h-14.3l-2.6,6l-4.8-1.9
			l13.1-30.6h2.9l13.1,30.6L208.5,257.1"/>
		<polygon class="st1" points="218,256.8 218,225.2 223.6,225.2 223.6,252 234.8,252 234.8,256.8 		"/>
		<polygon class="st1" points="297.2,257.2 294.3,257.2 281.2,226.7 286,224.7 295.7,247.6 295.8,247.6 305.5,224.7 310.3,226.7 		
			"/>
		<rect x="315" y="225.2" class="st1" width="5.6" height="31.6"/>
		<path class="st1" d="M339.8,234.3h-0.1l-5,11.8l0.1,0.2h10.1l0.1-0.2L339.8,234.3z M349.5,257.1l-2.6-6h-14.3l-2.6,6l-4.8-1.9
			l13.1-30.6h2.9l13.1,30.6L349.5,257.1"/>
		<path class="st1" d="M381.6,257c-8.6-2.3-13-7-15.9-10.4l0.5-1c4.8-0.1,8.9-4.3,8.9-8.6c0-3.6-3.4-7.1-7.2-7.1h-4.5v26.8h-5.6
			v-31.6H368c7,0,12.7,5.4,12.7,12.1c0,4.9-2.8,8.3-6.4,10.6l-0.1,0.1c2.5,2.2,6.6,4,9.1,4.4L381.6,257z"/>
		<polygon class="st1" points="399.7,248.2 399.7,256.8 394.1,256.8 394.1,248.2 383.2,226.1 388,224.2 396.8,241.8 397,241.8 
			405.7,224.3 410.6,226.1 		"/>
		<polygon class="st1" points="29.7,259.9 6.3,233.2 6.1,233 6.1,259.9 0,259.9 0,221.1 3.7,221.1 27.1,247.8 27.4,247.5 
			27.3,221.6 33.3,221.6 33.3,259.8 		"/>
		<path class="st1" d="M267.4,231.7l-0.1-0.1l-7.2,15.7l14-0.1H274L267.4,231.7z M279.7,259.9l-3.1-7.2h-18.8l-3.2,7.2l-5.3-1.8
			l16.2-37.4l3.2,0l16.7,37.4L279.7,259.9"/>
	</g>
</g>
</svg>
