<svg width="411px" height="53px" viewBox="0 0 411 53" version="1.1" xmlns="http://www.w3.org/2000/svg" xmlns:xlink="http://www.w3.org/1999/xlink">
    <!-- Generator: Sketch 45.2 (43514) - http://www.bohemiancoding.com/sketch -->
    <desc>Created with Sketch.</desc>
    <defs>
        <polygon id="path-1" points="32.5034687 0.435335638 0 0.435335638 0 51.9907211 32.5034687 51.9907211 65.0069375 51.9907211 65.0069375 0.435335638 32.5034687 0.435335638"></polygon>
    </defs>
    <g id="Page-1" stroke="none" stroke-width="1" fill="none" fill-rule="evenodd">
        <g id="02_ppg_paint_arena_hp_design-v3" transform="translate(-514.000000, -63.000000)">
            <g id="header" transform="translate(19.000000, -7.000000)">
                <g id="logo" transform="translate(495.000000, 70.000000)">
                    <g id="Group-3" transform="translate(0.000000, 0.257943)">
                        <mask id="mask-2" fill="white">
                            <use xlink:href="#path-1"></use>
                        </mask>
                        <g id="Clip-2"></g>
                        <path d="M52.6997324,51.9907211 L12.3070669,51.9907211 C5.52107697,51.9907211 -0.000138151261,46.4498967 -0.000138151261,39.6398054 L-0.000138151261,12.7862513 C-0.000138151261,5.97546688 5.52107697,0.435335638 12.3070669,0.435335638 L52.6997324,0.435335638 C59.4864131,0.435335638 65.0069375,5.97546688 65.0069375,12.7862513 L65.0069375,39.6398054 C65.0069375,46.4498967 59.4864131,51.9907211 52.6997324,51.9907211" id="Fill-1" fill="#FEFEFE" mask="url(#mask-2)"></path>
                    </g>
                    <path d="M52.6997324,50.0744818 L12.3070669,50.0744818 C6.7299005,50.0744818 2.16607361,45.495139 2.16607361,39.8974714 L2.16607361,13.0439174 C2.16607361,7.44694293 6.7299005,2.86760021 12.3070669,2.86760021 L52.6997324,2.86760021 C58.2775896,2.86760021 62.8407257,7.44694293 62.8407257,13.0439174 L62.8407257,39.8974714 C62.8407257,45.495139 58.2775896,50.0744818 52.6997324,50.0744818" id="Fill-4" fill="#0078A8"></path>
                    <path d="M32.5213593,28.8506216 C29.8619476,28.8506216 28.1488719,27.6014579 28.1488719,27.6014579 L28.1488719,13.2090399 C28.1488719,12.0084008 29.5635408,11.1841746 30.7737459,11.0330549 C32.0709862,10.8701506 38.0453375,9.96689852 38.0453375,19.400095 C38.0453375,27.9023109 34.0182282,28.8506216 32.5213593,28.8506216 M12.9701929,27.9612337 C11.2087644,27.9612337 10.4800165,27.1924642 10.4800165,27.1924642 L10.4800165,18.5162527 C10.4800165,17.776598 11.0112081,17.2691686 11.8131761,17.1755853 C12.672477,17.0757631 16.5766316,16.4497948 16.5766316,22.2602778 C16.5766316,27.6992005 14.1928316,27.9612337 12.9701929,27.9612337 M53.1321459,18.2459009 C55.5567005,17.5256562 58.0233913,18.2708565 59.9796131,19.9005923 L59.9796131,14.6696325 C53.6550484,13.6637854 50.3401089,14.3486765 47.8105593,15.9236487 C45.7590131,17.2393606 44.8879694,19.0347735 44.8879694,19.0347735 C44.8879694,19.0347735 44.8423795,19.1297432 44.7670871,19.300966 C44.435524,6.06343518 36.3647274,7.21693598 26.7321308,7.21901561 C24.0319644,7.22040203 21.3076215,7.21901561 21.3076215,7.21901561 L21.3076215,18.626473 C19.7071392,13.9050223 14.7640871,14.413145 9.47496605,14.413145 C7.55811731,14.413145 5.02718622,14.4138382 5.02718622,14.4138382 L5.02718622,38.5465445 L12.3119022,38.5465445 C11.0968618,38.1223002 10.4800165,37.0644624 10.4800165,35.5283099 L10.4800165,28.8984531 L12.5812971,31.0071967 C13.5089829,31.2345695 14.3199308,31.209614 14.3199308,31.209614 C16.3307224,31.0987004 19.9461408,30.3160668 21.3076215,26.2247436 L21.3076215,45.7503788 L29.9752316,45.7503788 C28.763645,45.327521 28.1488719,44.289093 28.1488719,42.7584861 L28.1488719,29.6471195 L31.4341089,32.9329331 C32.4951106,33.3148916 33.2756652,33.3779736 34.1715761,33.3377675 C36.6997442,33.1790225 41.0287139,32.1066272 43.2957761,27.518966 C43.4822803,31.8321162 44.8900417,36.1577442 49.2500955,37.8581874 C51.1690165,38.6449803 53.3497341,38.8640345 55.6188686,38.6893457 C57.1005408,38.6449803 58.5393862,38.5132705 59.9796131,38.2519304 L59.9796131,26.4306269 L53.3407543,26.4327065 C54.5557946,26.8562576 55.17264,27.8600251 55.17264,29.3961776 L55.17264,34.7803367 C53.6585022,35.2551853 51.6131728,34.7865756 50.4713526,33.3051866 C49.0297442,31.4349071 48.7693291,26.1699801 49.3813392,22.5791542 C49.7287896,20.7844346 51.2608871,18.8011618 53.1321459,18.2459009" id="Fill-6" fill="#FEFEFE"></path>
                    <path d="M87.9899884,17.5142875 L87.9899884,25.710798 L92.9523817,25.710798 C96.4648775,25.710798 99.2306657,24.9614384 99.2306657,21.5681773 C99.2306657,18.2192817 96.4648775,17.5142875 92.9523817,17.5142875 L87.9899884,17.5142875 Z M92.7327212,11.1686467 C100.987259,11.1686467 107.178508,13.1962848 107.178508,21.5681773 C107.178508,29.9851285 100.987259,32.0564388 92.7327212,32.0564388 L87.9899884,32.0564388 L87.9899884,43.1165982 L80.4814674,43.1165982 L80.4814674,11.1686467 L92.7327212,11.1686467 Z" id="Fill-8" fill="#FEFEFE"></path>
                    <path d="M115.699816,31.3070792 L123.910836,31.3070792 L119.827775,19.1447165 L115.699816,31.3070792 Z M115.743333,11.1686467 L123.998562,11.1686467 L136.030155,43.1165982 L127.862653,43.1165982 L125.931298,37.4322794 L113.635836,37.4322794 L111.747999,43.1165982 L103.755948,43.1165982 L115.743333,11.1686467 Z" id="Fill-10" fill="#FEFEFE"></path>
                    <polygon id="Fill-12" fill="#FEFEFE" points="138.711464 43.1170141 146.219985 43.1170141 146.219985 11.1690626 138.711464 11.1690626"></polygon>
                    <polygon id="Fill-14" fill="#FEFEFE" points="171.996178 43.1166675 159.218568 21.0836931 159.218568 43.1166675 151.973225 43.1166675 151.973225 11.168716 161.106405 11.168716 173.884015 33.2016904 173.884015 11.168716 181.129358 11.168716 181.129358 43.1166675"></polygon>
                    <polygon id="Fill-15" fill="#FEFEFE" points="194.393813 17.7786777 184.206539 17.7786777 184.206539 11.168924 212.177334 11.168924 212.177334 17.7786777 201.946542 17.7786777 201.946542 43.1168755 194.393813 43.1168755"></polygon>
                    <path d="M226.45057,16.6772369 C223.552847,16.6772369 221.40045,17.778747 221.40045,19.7620197 C221.40045,21.3480833 222.893865,22.4939588 225.089089,22.9785123 L229.436018,23.8595817 C234.573864,24.9174196 241.072499,26.5034832 241.072499,33.2019677 C241.072499,39.899759 234.354203,43.689536 227.724324,43.689536 C219.556822,43.689536 214.200007,39.5919739 213.057496,32.7174142 L220.522499,32.7174142 C221.356933,36.0663098 223.991477,37.608008 227.899776,37.608008 C230.446595,37.608008 233.344317,36.771304 233.344317,34.1274025 C233.344317,32.0560922 230.885225,31.0426198 227.416247,30.2932602 L223.552847,29.5002284 C218.371484,28.3987183 213.672959,25.9308921 213.672959,20.2022078 C213.672959,13.6804917 220.654433,10.6400744 226.889891,10.6400744 C233.124657,10.6400744 239.052728,13.3720135 240.150339,20.4226485 L232.729544,20.4226485 C231.983528,18.0428599 229.65637,16.6772369 226.45057,16.6772369" id="Fill-16" fill="#FEFEFE"></path>
                    <path d="M263.118608,31.3070792 L271.330319,31.3070792 L267.246568,19.1447165 L263.118608,31.3070792 Z M263.162126,11.1686467 L271.418045,11.1686467 L283.448948,43.1165982 L275.281445,43.1165982 L273.35009,37.4322794 L261.055319,37.4322794 L259.166791,43.1165982 L251.175432,43.1165982 L263.162126,11.1686467 Z" id="Fill-17" fill="#FEFEFE"></path>
                    <path d="M293.638708,17.5142875 L293.638708,24.7409978 L298.601102,24.7409978 C302.157115,24.7409978 304.879386,24.1240412 304.879386,21.127296 C304.879386,18.1756095 302.157115,17.5142875 298.601102,17.5142875 L293.638708,17.5142875 Z M298.732345,31.0866386 L298.38075,31.0866386 L293.638708,31.0866386 L293.638708,43.1165982 L286.130187,43.1165982 L286.130187,11.1686467 L298.38075,11.1686467 C306.635979,11.1686467 312.827228,13.107554 312.827228,21.0392584 C312.827228,25.7544702 310.236891,28.4427371 306.592461,29.8527255 L314.452577,43.1165982 L305.626093,43.1165982 L298.732345,31.0866386 Z" id="Fill-18" fill="#FEFEFE"></path>
                    <polygon id="Fill-19" fill="#FEFEFE" points="317.792246 11.1687853 342.206336 11.1687853 342.206336 17.778539 325.300767 17.778539 325.300767 23.3748202 341.284177 23.3748202 341.284177 30.0289393 325.300767 30.0289393 325.300767 36.4626178 342.206336 36.4626178 342.206336 43.1167369 317.792246 43.1167369"></polygon>
                    <polygon id="Fill-20" fill="#FEFEFE" points="366.93037 43.1166675 354.152759 21.0836931 354.152759 43.1166675 346.907417 43.1166675 346.907417 11.168716 356.040596 11.168716 368.818207 33.2016904 368.818207 11.168716 376.063549 11.168716 376.063549 43.1166675"></polygon>
                    <path d="M390.206301,31.3070792 L398.418012,31.3070792 L394.334261,19.1447165 L390.206301,31.3070792 Z M390.249819,11.1686467 L398.505738,11.1686467 L410.536641,43.1165982 L402.369138,43.1165982 L400.437784,37.4322794 L388.143012,37.4322794 L386.254484,43.1165982 L378.263125,43.1165982 L390.249819,11.1686467 Z" id="Fill-21" fill="#FEFEFE"></path>
                </g>
            </g>
        </g>
    </g>
</svg>