<?xml version="1.0" encoding="utf-8"?>
<svg xmlns="http://www.w3.org/2000/svg" xmlns:xlink="http://www.w3.org/1999/xlink" version="1.1" id="Layer_1" x="0px" y="0px" viewBox="0 0 417.88 293.03" style="enable-background:new 0 0 417.88 293.03;">
<style type="text/css">
	.st0{fill:#1C355E;}
	.st1{fill:#FFB71B;}
</style>
<g>
	<path class="st0" d="M123.54,221.84c-1.8,1.7-4.57,3.31-11.13,3.33c-7.87-0.1-11.72-2.8-11.79-8.78c0.06-5.81,3.92-8.63,11.79-8.74&#xA;		v0c6.04,0.02,8.57,1.2,10.77,3.01l0.65,0.54l3.33-4.03l-0.65-0.53c-3.3-2.76-7.8-3.88-14.03-3.87c-9.79,0.01-17.79,4.54-17.81,13.7&#xA;		c0.02,9.3,7.96,13.56,17.81,13.57c6.55,0,11.19-1.33,14.45-4.29l0.6-0.54l-3.35-4L123.54,221.84z"/>
	<path class="st0" d="M153.12,202.46h-0.45l-18.21,27.11h6.22l3.2-4.78h18.9l3.28,4.78h6.43l-18.6-27.11H153.12z M159.32,219.79&#xA;		h-12.09l5.99-8.91L159.32,219.79z"/>
	<path class="st0" d="M208.26,215.19c-2.1-1.1-4.89-1.48-8.2-1.65l-7.79-0.36c-2.24-0.09-3.85-0.33-4.75-0.74&#xA;		c-0.89-0.45-1.1-0.75-1.14-1.63c0.02-0.89,0.42-1.52,1.82-2.16c1.38-0.6,3.67-0.96,6.83-0.96c6.52,0,9.62,1.22,12.22,2.62l0.74,0.4&#xA;		l2.46-4.57l-0.73-0.39c-3.25-1.77-7.33-3-14.69-2.99c-8.49,0.01-14.3,2.71-14.36,8.35c0,5.14,4.47,6.98,10.88,7.25l7.8,0.36&#xA;		c2.5,0.11,4.27,0.35,5.23,0.79c0.96,0.49,1.2,0.82,1.25,1.89c-0.02,1.01-0.47,1.78-1.94,2.52c-1.48,0.72-3.98,1.19-7.59,1.18&#xA;		c-6.89,0-10.9-1.77-13.1-3.23l-0.69-0.45l-3.01,4.35l0.72,0.47c3.56,2.33,8.36,3.78,16.08,3.77c8.07,0,15.26-2.3,15.36-8.95&#xA;		C211.7,218.3,210.39,216.27,208.26,215.19z"/>
	<polygon class="st0" points="224.09,204.05 224.09,229.58 229.85,229.58 229.85,203.22 224.09,203.22"/>
	<polygon class="st0" points="269.35,220.2 245.66,202.82 245.39,202.82 245.03,202.82 244.19,202.82 244.19,229.58 249.95,229.58 &#xA;		249.95,212.49 273.71,230.17 274.27,230.17 275.11,230.17 275.11,203.21 269.35,203.21"/>
	<path class="st0" d="M304.6,202.78c-9.59,0.01-18.19,4.49-18.21,13.7c0.01,9.35,8.55,13.56,18.21,13.58&#xA;		c9.65-0.01,18.05-4.32,18.05-13.65C322.63,207.21,314.16,202.79,304.6,202.78z M316.7,216.48c-0.03,5.84-4.37,8.61-12.18,8.7&#xA;		c-7.79-0.09-12.14-2.95-12.18-8.78c0.03-5.68,4.39-8.65,12.18-8.73C312.29,207.74,316.67,210.8,316.7,216.48z"/>
	<path class="st1" d="M176.13,79.96c-8.85-2.62-16.65-5.35-20.89-8.69l0,0c-1.37-1.14-2.7-2.54-2.77-4.7l0,0&#xA;		c-0.02-1.68,1.07-3.16,2.33-4.05l0,0c1.29-0.93,2.84-1.57,4.8-2.16l0,0c7.44-2.2,15.39-3.39,22.3-4.96l0,0&#xA;		c6.92-1.53,12.64-3.51,15.73-6.53l0,0c2.06-2.01,3.29-4.42,3.38-8.27l0,0c0-0.08,0-0.12,0-0.13l0,0c0-2.62-1.64-5.12-5.66-7.77l0,0&#xA;		c-3.98-2.6-10.1-5.01-17.69-7.05l0,0c-15.19-4.11-36.17-6.86-58.24-8.64l0,0c-44.1-3.58-92.57-3.42-109.86-3.59l0,0&#xA;		c-0.03,0-0.06,0-0.1,0l0,0l0,0c-0.37,0-0.73-0.06-1.05-0.18l0,0h0l0,0c-0.02-0.01-0.04-0.01-0.06-0.02l0,0c0,0-0.01,0-0.01-0.01&#xA;		l0,0c-0.02,0-0.04-0.01-0.06-0.01l0,0c0,0-0.01-0.01-0.02-0.01l0,0c-0.01,0-0.03-0.01-0.05-0.02l0,0&#xA;		c-0.01-0.01-0.02-0.01-0.03-0.01l0,0c-0.01-0.01-0.03-0.02-0.03-0.02l0,0c-0.01,0-0.02-0.01-0.03-0.01l0,0&#xA;		c-0.01,0-0.02-0.01-0.03-0.01l0,0c-0.01-0.01-0.03-0.01-0.04-0.02l0,0c-0.01,0-0.01,0-0.02-0.01l0,0C8.02,13.09,8,13.08,7.98,13.07&#xA;		l0,0l0,0l0,0c-0.88-0.44-1.51-1.26-1.6-2.23l0,0C6.24,9.29,7.52,7.94,9.25,7.82l0,0c18.15-1.3,39.64-1.98,62.42-1.98l0,0&#xA;		c59.09,0.01,126.65,4.54,166.69,15.06l0,0c13.38,3.55,23.74,7.66,30.03,13.03l0,0c3.57,3.06,5.86,6.79,5.85,10.93l0,0&#xA;		c0,0.15,0,0.31-0.01,0.49l0,0c-0.2,5.42-3.62,9.64-8.09,12.46l0,0c-4.48,2.87-10.07,4.67-15.74,5.91l0,0&#xA;		c-5.88,1.28-11.87,1.93-16.71,2.27l0,0c45.39,23.34,112.08,27.94,149.86,27.9l0,0c10.69,0,19.1-0.36,24-0.73l0,0&#xA;		c1.7-0.13,3.21,1,3.38,2.52l0,0c0.17,1.53-1.08,2.89-2.77,3.06l0,0c-26.09,2.58-50.12,3.66-72.1,3.66l0,0&#xA;		C256.18,102.42,203.25,88.14,176.13,79.96L176.13,79.96z"/>
	<path class="st0" d="M63.64,152.8c0.05-5.09-2.16-9.13-6.2-11.5c-4.02-2.37-9.63-3.34-16.82-3.35H7.85v47.75h10.43l0-17.77h19.37&#xA;		l16.12,17.77h0.68H66.7l-16.81-18.56C58.47,165.43,63.71,160.46,63.64,152.8z M18.28,147.08h21.55c5.04-0.02,8.57,0.45,10.53,1.41&#xA;		c1.92,1,2.56,2.01,2.64,4.59c-0.08,2.52-0.81,3.6-2.82,4.63c-2.05,1-5.57,1.46-10.35,1.46H18.28V147.08z"/>
	<polygon class="st0" points="97.16,137.95 86.74,137.95 86.74,139.48 86.74,185.7 97.15,185.7"/>
	<polygon class="st0" points="152.29,187.07 153.11,187.07 186.1,137.94 174.49,137.94 174.03,138.62 152.15,171.43 129.61,137.94 &#xA;		117.24,137.94 150.92,187.07"/>
	<polygon class="st0" points="256.45,176.28 216.25,176.28 216.25,165.78 243.91,165.78 243.91,156.65 242.39,156.65 216.25,156.65 &#xA;		216.25,147.37 254.59,147.37 254.59,137.95 205.83,137.95 205.83,185.7 256.45,185.7"/>
	<path class="st0" d="M323.83,185.7h0.67h12.25l-16.81-18.56c8.58-1.71,13.83-6.68,13.75-14.34c0.05-5.09-2.15-9.13-6.2-11.5&#xA;		c-4.02-2.37-9.63-3.34-16.83-3.35H277.9v47.75h10.43v-17.77h19.37L323.83,185.7z M288.33,147.08h21.55&#xA;		c5.04-0.02,8.56,0.45,10.53,1.41c1.9,1,2.55,2.01,2.63,4.59c-0.07,2.52-0.8,3.6-2.82,4.63c-2.05,1-5.56,1.46-10.35,1.46h-21.55&#xA;		V147.08z"/>
	<path class="st0" d="M403.31,159.64c-3.8-1.99-8.86-2.68-14.86-3l-14.12-0.64c-4.05-0.17-6.96-0.6-8.6-1.35&#xA;		c-1.62-0.81-1.98-1.36-2.06-2.94c0.04-1.6,0.78-2.76,3.3-3.91c2.51-1.09,6.66-1.74,12.38-1.74c11.8,0.03,17.41,2.21,22.14,4.77&#xA;		l1.33,0.73l4.46-8.26l-1.34-0.72c-5.88-3.22-13.25-5.43-26.6-5.42c-15.38,0.01-25.9,4.92-26.04,15.13&#xA;		c0,9.32,8.13,12.64,19.72,13.12l14.14,0.66c4.52,0.19,7.72,0.64,9.49,1.44c1.73,0.87,2.16,1.49,2.24,3.42&#xA;		c-0.05,1.82-0.83,3.23-3.52,4.57c-2.67,1.3-7.19,2.16-13.74,2.15c-12.49-0.01-19.76-3.22-23.73-5.84l-1.25-0.82l-5.46,7.88&#xA;		l1.3,0.86c6.46,4.22,15.14,6.85,29.14,6.85c14.62-0.03,27.64-4.16,27.82-16.21C409.53,165.27,407.15,161.6,403.31,159.64z"/>
	<g>
		<path class="st0" d="M76.01,275.95h-3.91v7.02h-5.15v-23.41h9.56c5.59,0,8.96,3.31,8.96,8.09v0.07&#xA;			C85.47,273.14,81.26,275.95,76.01,275.95z M80.26,267.76c0-2.31-1.61-3.55-4.18-3.55h-3.98v7.16h4.08c2.58,0,4.08-1.54,4.08-3.54&#xA;			V267.76z"/>
		<path class="st0" d="M96.3,282.98v-23.41h5.15v23.41H96.3z"/>
		<path class="st0" d="M124.23,264.31v18.66h-5.15v-18.66h-7.12v-4.75h19.4v4.75H124.23z"/>
		<path class="st0" d="M153.22,264.31v18.66h-5.15v-18.66h-7.12v-4.75h19.4v4.75H153.22z"/>
		<path class="st0" d="M179.36,283.31c-3.55,0-7.12-1.24-9.94-3.75l3.04-3.64c2.11,1.74,4.31,2.84,6.99,2.84&#xA;			c2.11,0,3.38-0.84,3.38-2.21v-0.07c0-1.3-0.8-1.97-4.72-2.98c-4.71-1.2-7.76-2.51-7.76-7.16v-0.07c0-4.25,3.41-7.06,8.19-7.06&#xA;			c3.41,0,6.32,1.07,8.7,2.98l-2.67,3.88c-2.08-1.44-4.12-2.31-6.09-2.31c-1.97,0-3.01,0.9-3.01,2.04v0.07c0,1.54,1,2.04,5.05,3.08&#xA;			c4.75,1.24,7.42,2.94,7.42,7.02v0.07C187.96,280.7,184.41,283.31,179.36,283.31z"/>
		<path class="st0" d="M210.54,282.98H199.4v-23.41h10.87c4.78,0,7.73,2.37,7.73,6.05v0.07c0,2.64-1.41,4.11-3.08,5.05&#xA;			c2.71,1.04,4.38,2.61,4.38,5.75v0.07C219.3,280.84,215.82,282.98,210.54,282.98z M212.88,266.49c0-1.54-1.2-2.41-3.38-2.41h-5.08&#xA;			v4.95h4.75c2.27,0,3.71-0.74,3.71-2.48V266.49z M214.18,275.85c0-1.57-1.17-2.54-3.81-2.54h-5.95v5.15h6.12&#xA;			c2.27,0,3.65-0.8,3.65-2.54V275.85z"/>
		<path class="st0" d="M240.36,283.35c-6.29,0-10.13-3.51-10.13-10.4v-13.38h5.15v13.25c0,3.81,1.91,5.78,5.05,5.78&#xA;			c3.15,0,5.05-1.91,5.05-5.62v-13.41h5.15v13.21C250.63,279.87,246.65,283.35,240.36,283.35z"/>
		<path class="st0" d="M277.26,282.98l-5.02-7.49h-4.05v7.49h-5.15v-23.41h10.7c5.52,0,8.83,2.91,8.83,7.73v0.07&#xA;			c0,3.78-2.04,6.15-5.02,7.26l5.72,8.36H277.26z M277.36,267.56c0-2.21-1.54-3.34-4.05-3.34h-5.12v6.72h5.22&#xA;			c2.51,0,3.95-1.34,3.95-3.31V267.56z"/>
		<path class="st0" d="M305.08,283.38c-7.29,0-12.31-5.12-12.31-12.04v-0.07c0-6.66,5.18-12.11,12.27-12.11&#xA;			c4.22,0,6.76,1.14,9.2,3.21l-3.24,3.91c-1.81-1.51-3.41-2.37-6.12-2.37c-3.75,0-6.72,3.31-6.72,7.29v0.07&#xA;			c0,4.28,2.94,7.42,7.09,7.42c1.87,0,3.55-0.47,4.85-1.41v-3.34h-5.19v-4.45h10.17v10.17&#xA;			C312.68,281.71,309.37,283.38,305.08,283.38z"/>
		<path class="st0" d="M341.86,282.98v-9.4h-9.5v9.4h-5.15v-23.41h5.15v9.27h9.5v-9.27h5.15v23.41H341.86z"/>
	</g>
</g>
</svg>